<svg width="171" height="48" viewBox="0 0 171 48" fill="none" xmlns="http://www.w3.org/2000/svg">
<path fill-rule="evenodd" clip-rule="evenodd" d="M62.184 36.24C62.264 36.24 62.324 36.224 62.364 36.192C62.404 36.16 62.424 36.112 62.424 36.048C62.424 36 62.404 35.956 62.364 35.916C62.324 35.876 62.248 35.848 62.136 35.832L61.224 35.616C61.016 35.568 60.868 35.468 60.78 35.316C60.692 35.164 60.648 34.96 60.648 34.704V0.336C60.648 0.24 60.62 0.16 60.564 0.096C60.508 0.032 60.424 0 60.312 0C60.216 0 60.132 0.008 60.06 0.024C59.988 0.04 59.856 0.072 59.664 0.12L50.568 2.64C50.504 2.656 50.448 2.68 50.4 2.712C50.352 2.744 50.328 2.792 50.328 2.856C50.328 2.92 50.348 2.972 50.388 3.012C50.428 3.052 50.504 3.072 50.616 3.072H51.552C51.696 3.072 51.8 3.104 51.864 3.168C51.928 3.232 51.96 3.328 51.96 3.456V34.704C51.96 34.96 51.92 35.164 51.84 35.316C51.76 35.468 51.608 35.568 51.384 35.616L50.472 35.832C50.36 35.848 50.284 35.876 50.244 35.916C50.204 35.956 50.184 36 50.184 36.048C50.184 36.112 50.208 36.16 50.256 36.192C50.304 36.224 50.36 36.24 50.424 36.24H62.184ZM12.336 48C16.272 48 19.304 47.28 21.432 45.84C23.56 44.4 24.624 42.528 24.624 40.224C24.624 38.96 24.34 37.912 23.772 37.08C23.204 36.248 22.212 35.58 20.796 35.076C19.38 34.572 17.408 34.176 14.88 33.888C13.376 33.712 12.232 33.532 11.448 33.348C10.664 33.164 10.128 32.96 9.84 32.736C9.552 32.512 9.408 32.24 9.408 31.92C9.408 31.6 9.496 31.344 9.672 31.152C9.73067 31.088 9.78844 31.0347 9.84533 30.992L9.875 30.973L9.95067 30.9813C10.6769 31.0631 11.44 31.104 12.24 31.104C14.352 31.104 16.24 30.72 17.904 29.952C19.568 29.184 20.88 28.148 21.84 26.844C22.8 25.54 23.28 24.08 23.28 22.464C23.28 21.056 22.86 19.728 22.02 18.48C21.18 17.232 19.948 16.216 18.324 15.432C17.6744 15.1184 16.9678 14.8675 16.2043 14.6794L16.062 14.647C16.25 14.1483 16.464 13.758 16.704 13.476C17.024 13.1 17.432 12.912 17.928 12.912C18.376 12.912 18.764 13.076 19.092 13.404C19.42 13.732 19.744 14.112 20.064 14.544C20.384 14.976 20.744 15.356 21.144 15.684C21.544 16.012 22.04 16.176 22.632 16.176C23.624 16.176 24.388 15.884 24.924 15.3C25.46 14.716 25.728 13.904 25.728 12.864C25.728 11.68 25.4 10.72 24.744 9.984C24.088 9.248 23.096 8.88 21.768 8.88C20.216 8.88 18.948 9.424 17.964 10.512C17.0557 11.5163 16.3144 12.8069 15.7401 14.3838L15.677 14.563L15.4218 14.5121C14.4867 14.3414 13.4741 14.256 12.384 14.256C9.968 14.256 7.88 14.648 6.12 15.432C4.36 16.216 3.004 17.276 2.052 18.612C1.1 19.948 0.624 21.456 0.624 23.136C0.624 24.56 1.092 25.876 2.028 27.084C2.964 28.292 4.3 29.264 6.036 30C6.84613 30.3435 7.72857 30.6068 8.68331 30.79L8.927 30.834C7.65259 30.9875 6.59692 31.2335 5.76 31.572C4.672 32.012 3.888 32.576 3.408 33.264C2.928 33.952 2.688 34.736 2.688 35.616C2.688 36.576 2.952 37.34 3.48 37.908C3.876 38.334 4.452 38.6948 5.208 38.9902L5.223 38.997L5.12126 39.0099C3.47226 39.2428 2.24918 39.6195 1.452 40.14C0.484 40.772 0 41.76 0 43.104C0 44.08 0.404 44.936 1.212 45.672C2.02 46.408 3.328 46.98 5.136 47.388C6.944 47.796 9.344 48 12.336 48ZM11.544 29.652C11.08 29.1 10.66 28.26 10.284 27.132C9.908 26.004 9.6 24.608 9.36 22.944C9.136 21.296 9.052 19.88 9.108 18.696C9.164 17.512 9.336 16.596 9.624 15.948C9.912 15.3 10.288 14.944 10.752 14.88C11.408 14.784 12.072 15.372 12.744 16.644C13.416 17.916 13.928 19.792 14.28 22.272C14.632 24.784 14.66 26.74 14.364 28.14C14.068 29.54 13.584 30.288 12.912 30.384C12.464 30.448 12.008 30.204 11.544 29.652ZM7.668 45.504C8.812 46.752 10.448 47.376 12.576 47.376C13.728 47.376 14.684 47.268 15.444 47.052C16.204 46.836 16.772 46.488 17.148 46.008C17.524 45.528 17.712 44.896 17.712 44.112C17.712 43.424 17.512 42.832 17.112 42.336C16.712 41.84 16 41.42 14.976 41.076C13.952 40.732 12.512 40.432 10.656 40.176C8.88369 39.9249 7.43176 39.6466 6.30021 39.341L6.153 39.3L6.1248 39.3792C6.0992 39.456 6.0736 39.5456 6.048 39.648C5.984 39.904 5.952 40.192 5.952 40.512C5.952 42.592 6.524 44.256 7.668 45.504ZM42.984 36.72C44.488 36.72 45.676 36.476 46.548 35.988C47.42 35.5 48.044 34.952 48.42 34.344C48.796 33.736 48.984 33.248 48.984 32.88C48.984 32.8 48.972 32.748 48.948 32.724C48.924 32.7 48.888 32.688 48.84 32.688C48.808 32.688 48.78 32.7 48.756 32.724C48.732 32.748 48.712 32.8 48.696 32.88C48.632 33.376 48.484 33.716 48.252 33.9C48.02 34.084 47.784 34.176 47.544 34.176C47.304 34.176 47.1 34.08 46.932 33.888C46.764 33.696 46.68 33.408 46.68 33.024V21.168C46.68 18.928 45.916 17.216 44.388 16.032C42.86 14.848 40.56 14.256 37.488 14.256C35.216 14.256 33.316 14.56 31.788 15.168C30.26 15.776 29.112 16.532 28.344 17.436C27.576 18.34 27.192 19.232 27.192 20.112C27.192 21.136 27.476 21.896 28.044 22.392C28.612 22.888 29.336 23.136 30.216 23.136C31.528 23.136 32.592 22.732 33.408 21.924C34.224 21.116 34.632 20.176 34.632 19.104V16.56C34.632 15.984 34.792 15.528 35.112 15.192C35.432 14.856 35.864 14.688 36.408 14.688C36.84 14.688 37.204 14.856 37.5 15.192C37.796 15.528 37.944 15.984 37.944 16.56V25.44L37.8917 25.4226C37.5564 25.3228 37.1334 25.2658 36.6227 25.2516L36.36 25.248C32.568 25.248 29.868 25.796 28.26 26.892C26.652 27.988 25.848 29.504 25.848 31.44C25.848 32.976 26.452 34.24 27.66 35.232C28.868 36.224 30.392 36.72 32.232 36.72C33.672 36.72 35.012 36.412 36.252 35.796C37.0151 35.4169 37.6645 34.9333 38.2004 34.3452L38.381 34.137L38.3833 34.1899C38.4322 34.7894 38.7256 35.3194 39.2633 35.7799L39.432 35.916C40.136 36.452 41.32 36.72 42.984 36.72ZM35.04 33.36C35.472 34 36.024 34.32 36.696 34.32L36.8542 34.3119C37.1716 34.2796 37.4949 34.1503 37.824 33.924L37.944 33.835V25.868L37.872 25.848C37.536 25.768 37.144 25.728 36.696 25.728C35.992 25.728 35.432 26.096 35.016 26.832C34.6 27.568 34.392 28.704 34.392 30.24C34.392 31.68 34.608 32.72 35.04 33.36ZM76.092 36.192C76.052 36.224 75.992 36.24 75.912 36.24H64.152C64.088 36.24 64.032 36.224 63.984 36.192C63.936 36.16 63.912 36.112 63.912 36.048C63.912 36 63.932 35.956 63.972 35.916C64.012 35.876 64.088 35.848 64.2 35.832L65.112 35.616C65.336 35.568 65.488 35.468 65.568 35.316C65.648 35.164 65.688 34.96 65.688 34.704V3.456C65.688 3.328 65.656 3.232 65.592 3.168C65.528 3.104 65.424 3.072 65.28 3.072H64.344C64.232 3.072 64.156 3.052 64.116 3.012C64.076 2.972 64.056 2.92 64.056 2.856C64.056 2.792 64.08 2.744 64.128 2.712C64.176 2.68 64.232 2.656 64.296 2.64L73.392 0.12C73.584 0.072 73.716 0.04 73.788 0.024C73.86 0.008 73.944 0 74.04 0C74.152 0 74.236 0.032 74.292 0.096C74.348 0.16 74.376 0.24 74.376 0.336V34.704C74.376 34.96 74.42 35.164 74.508 35.316C74.596 35.468 74.744 35.568 74.952 35.616L75.864 35.832C75.976 35.848 76.052 35.876 76.092 35.916C76.132 35.956 76.152 36 76.152 36.048C76.152 36.112 76.132 36.16 76.092 36.192ZM88.44 36.72C90.44 36.72 92.232 36.3 93.816 35.46C95.4 34.62 96.652 33.476 97.572 32.028C98.492 30.58 98.952 28.944 98.952 27.12C98.952 27.024 98.932 26.96 98.892 26.928C98.852 26.896 98.808 26.88 98.76 26.88C98.744 26.88 98.716 26.892 98.676 26.916C98.636 26.94 98.616 26.992 98.616 27.072C98.616 28.56 98.06 29.748 96.948 30.636C95.836 31.524 94.392 31.968 92.616 31.968C90.408 31.968 88.64 31.212 87.312 29.7C86.3713 28.629 85.7638 27.1064 85.4895 25.1323L85.461 24.912H98.376C98.568 24.912 98.7165 24.8762 98.8214 24.8045L98.892 24.744C98.996 24.632 99.048 24.496 99.048 24.336C99.048 22.416 98.632 20.696 97.8 19.176C96.968 17.656 95.788 16.456 94.26 15.576C92.732 14.696 90.92 14.256 88.824 14.256C86.472 14.256 84.428 14.716 82.692 15.636C80.956 16.556 79.616 17.876 78.672 19.596C77.728 21.316 77.256 23.376 77.256 25.776C77.256 27.92 77.736 29.816 78.696 31.464C79.656 33.112 80.976 34.4 82.656 35.328C84.336 36.256 86.264 36.72 88.44 36.72ZM85.32 22.464C85.32 23.016 85.3384 23.543 85.3753 24.045L85.399 24.336H90.024C90.312 24.336 90.456 24.16 90.456 23.808C90.456 20.592 90.164 18.284 89.58 16.884C88.996 15.484 88.392 14.784 87.768 14.784C87.336 14.784 86.936 15.012 86.568 15.468C86.2 15.924 85.9 16.712 85.668 17.832C85.436 18.952 85.32 20.496 85.32 22.464ZM113.784 36.24C113.88 36.24 113.952 36.224 114 36.192C114.048 36.16 114.072 36.112 114.072 36.048C114.072 36 114.056 35.96 114.024 35.928C113.992 35.896 113.928 35.872 113.832 35.856L111.48 35.376C111.288 35.328 111.136 35.216 111.024 35.04C110.912 34.864 110.856 34.672 110.856 34.464V23.52C110.856 22.432 110.92 21.544 111.048 20.856C111.176 20.168 111.356 19.664 111.588 19.344C111.82 19.024 112.088 18.864 112.392 18.864C112.728 18.864 112.96 18.976 113.088 19.2C113.216 19.424 113.288 19.712 113.304 20.064L113.352 20.976C113.416 22.144 113.704 23.036 114.216 23.652C114.728 24.268 115.552 24.576 116.688 24.576C117.92 24.576 118.944 24.16 119.76 23.328C120.576 22.496 120.984 21.216 120.984 19.488C120.984 17.728 120.64 16.416 119.952 15.552C119.264 14.688 118.264 14.256 116.952 14.256C115.88 14.256 114.848 14.596 113.856 15.276C112.864 15.956 112.052 16.964 111.42 18.3C111.194 18.7771 111.009 19.2956 110.864 19.8554L110.856 19.885V14.784C110.856 14.72 110.845 14.6596 110.824 14.6027L110.784 14.52C110.736 14.44 110.648 14.4 110.52 14.4C110.424 14.4 110.332 14.408 110.244 14.424C110.156 14.44 110.04 14.464 109.896 14.496L100.776 16.56C100.68 16.576 100.608 16.608 100.56 16.656C100.512 16.704 100.488 16.752 100.488 16.8C100.488 16.848 100.512 16.892 100.56 16.932C100.608 16.972 100.664 16.992 100.728 16.992H101.784C101.928 16.992 102.028 17.036 102.084 17.124C102.14 17.212 102.168 17.328 102.168 17.472V34.848C102.168 35.04 102.128 35.204 102.048 35.34C101.968 35.476 101.816 35.568 101.592 35.616L100.728 35.808C100.632 35.824 100.552 35.856 100.488 35.904C100.424 35.952 100.392 36 100.392 36.048C100.392 36.096 100.416 36.14 100.464 36.18C100.512 36.22 100.584 36.24 100.68 36.24H113.784ZM131.484 11.4C130.548 12.328 129.344 12.792 127.872 12.792C126.416 12.792 125.232 12.328 124.32 11.4C123.408 10.472 122.952 9.336 122.952 7.992C122.952 6.648 123.408 5.512 124.32 4.584C125.232 3.656 126.416 3.192 127.872 3.192C129.344 3.192 130.548 3.656 131.484 4.584C132.42 5.512 132.888 6.648 132.888 7.992C132.888 9.336 132.42 10.472 131.484 11.4ZM133.848 36.24C133.928 36.24 133.988 36.224 134.028 36.192C134.068 36.16 134.088 36.112 134.088 36.048C134.088 36 134.068 35.956 134.028 35.916C133.988 35.876 133.912 35.848 133.8 35.832L132.888 35.616C132.68 35.568 132.532 35.468 132.444 35.316C132.356 35.164 132.312 34.96 132.312 34.704V14.496C132.312 14.4 132.284 14.32 132.228 14.256C132.172 14.192 132.088 14.16 131.976 14.16C131.88 14.16 131.796 14.168 131.724 14.184C131.652 14.2 131.52 14.232 131.328 14.28L122.232 16.8C122.168 16.816 122.112 16.84 122.064 16.872C122.016 16.904 121.992 16.952 121.992 17.016C121.992 17.08 122.012 17.132 122.052 17.172C122.092 17.212 122.168 17.232 122.28 17.232H123.216C123.36 17.232 123.464 17.264 123.528 17.328C123.592 17.392 123.624 17.488 123.624 17.616V34.704C123.624 34.96 123.584 35.164 123.504 35.316C123.424 35.468 123.272 35.568 123.048 35.616L122.136 35.832C122.024 35.848 121.948 35.876 121.908 35.916C121.868 35.956 121.848 36 121.848 36.048C121.848 36.112 121.872 36.16 121.92 36.192C121.968 36.224 122.024 36.24 122.088 36.24H133.848ZM155.7 35.988C154.828 36.476 153.64 36.72 152.136 36.72C150.472 36.72 149.288 36.452 148.584 35.916L148.415 35.7799C147.878 35.3194 147.584 34.7894 147.535 34.1899L147.533 34.137L147.352 34.3452C146.817 34.9333 146.167 35.4169 145.404 35.796C144.164 36.412 142.824 36.72 141.384 36.72C139.544 36.72 138.02 36.224 136.812 35.232C135.604 34.24 135 32.976 135 31.44C135 29.504 135.804 27.988 137.412 26.892C139.02 25.796 141.72 25.248 145.512 25.248L145.775 25.2516C146.285 25.2658 146.708 25.3228 147.044 25.4226L147.096 25.44V16.56C147.096 15.984 146.948 15.528 146.652 15.192C146.356 14.856 145.992 14.688 145.56 14.688C145.016 14.688 144.584 14.856 144.264 15.192C143.944 15.528 143.784 15.984 143.784 16.56V19.104C143.784 20.176 143.376 21.116 142.56 21.924C141.744 22.732 140.68 23.136 139.368 23.136C138.488 23.136 137.764 22.888 137.196 22.392C136.628 21.896 136.344 21.136 136.344 20.112C136.344 19.232 136.728 18.34 137.496 17.436C138.264 16.532 139.412 15.776 140.94 15.168C142.468 14.56 144.368 14.256 146.64 14.256C149.712 14.256 152.012 14.848 153.54 16.032C155.068 17.216 155.832 18.928 155.832 21.168V33.024C155.832 33.408 155.916 33.696 156.084 33.888C156.252 34.08 156.456 34.176 156.696 34.176C156.936 34.176 157.172 34.084 157.404 33.9C157.636 33.716 157.784 33.376 157.848 32.88C157.864 32.8 157.884 32.748 157.908 32.724C157.932 32.7 157.96 32.688 157.992 32.688C158.04 32.688 158.076 32.7 158.1 32.724C158.124 32.748 158.136 32.8 158.136 32.88C158.136 33.248 157.948 33.736 157.572 34.344C157.196 34.952 156.572 35.5 155.7 35.988ZM145.848 34.32C145.176 34.32 144.624 34 144.192 33.36C143.76 32.72 143.544 31.68 143.544 30.24C143.544 28.704 143.752 27.568 144.168 26.832C144.584 26.096 145.144 25.728 145.848 25.728C146.296 25.728 146.688 25.768 147.024 25.848L147.096 25.868V33.835L146.976 33.924C146.647 34.1503 146.324 34.2796 146.006 34.3119L145.848 34.32ZM167.112 36.036C166.36 36.492 165.512 36.72 164.568 36.72C163.656 36.72 162.828 36.492 162.084 36.036C161.34 35.58 160.752 34.968 160.32 34.2C159.888 33.432 159.672 32.592 159.672 31.68C159.672 30.784 159.888 29.96 160.32 29.208C160.752 28.456 161.34 27.856 162.084 27.408C162.828 26.96 163.656 26.736 164.568 26.736C165.512 26.736 166.36 26.96 167.112 27.408C167.864 27.856 168.46 28.456 168.9 29.208C169.34 29.96 169.56 30.784 169.56 31.68C169.56 32.592 169.34 33.432 168.9 34.2C168.46 34.968 167.864 35.58 167.112 36.036Z" fill="black"/>
<path d="M62.136 35.832L62.0208 36.3185L62.0428 36.3238L62.0653 36.327L62.136 35.832ZM61.224 35.616L61.3392 35.1295L61.3364 35.1288L61.224 35.616ZM60.78 35.316L61.2127 35.0655L61.2127 35.0655L60.78 35.316ZM60.564 0.096L60.1877 0.425251L60.1877 0.425252L60.564 0.096ZM60.06 0.024L59.9515 -0.464094L59.9515 -0.464093L60.06 0.024ZM59.664 0.12L59.5427 -0.365227L59.5305 -0.36185L59.664 0.12ZM50.568 2.64L50.6893 3.12523L50.7015 3.12185L50.568 2.64ZM50.388 3.012L50.0344 3.36554L50.0344 3.36556L50.388 3.012ZM51.84 35.316L51.3975 35.0831L51.3975 35.0831L51.84 35.316ZM51.384 35.616L51.2792 35.127L51.2688 35.1295L51.384 35.616ZM50.472 35.832L50.5427 36.327L50.5652 36.3238L50.5872 36.3185L50.472 35.832ZM50.244 35.916L50.5976 36.2696L50.5976 36.2695L50.244 35.916ZM21.432 45.84L21.7122 46.2541L21.7122 46.2541L21.432 45.84ZM20.796 35.076L20.6283 35.5471L20.6283 35.5471L20.796 35.076ZM14.88 33.888L14.8219 34.3846L14.8234 34.3848L14.88 33.888ZM11.448 33.348L11.5622 32.8612L11.5622 32.8612L11.448 33.348ZM9.84 32.736L10.147 32.3413L10.147 32.3413L9.84 32.736ZM9.672 31.152L10.0406 31.4899L10.0406 31.4899L9.672 31.152ZM9.84533 30.992L9.57566 30.571L9.56011 30.5809L9.54534 30.592L9.84533 30.992ZM9.875 30.973L9.92975 30.476L9.75412 30.4567L9.60533 30.552L9.875 30.973ZM9.95067 30.9813L10.0066 30.4845L10.0054 30.4843L9.95067 30.9813ZM17.904 29.952L17.6945 29.498L17.6945 29.498L17.904 29.952ZM21.84 26.844L22.2427 27.1404L22.2427 27.1404L21.84 26.844ZM22.02 18.48L22.4348 18.2008L22.4348 18.2008L22.02 18.48ZM18.324 15.432L18.1066 15.8823L18.1066 15.8823L18.324 15.432ZM16.2043 14.6794L16.324 14.1938L16.3152 14.1918L16.2043 14.6794ZM16.062 14.647L15.5941 14.4706L15.3918 15.0074L15.9511 15.1346L16.062 14.647ZM16.704 13.476L16.3232 13.1519L16.3232 13.1519L16.704 13.476ZM20.064 14.544L19.6622 14.8416L19.6622 14.8416L20.064 14.544ZM21.144 15.684L20.827 16.0706L20.827 16.0706L21.144 15.684ZM17.964 10.512L18.3348 10.8474L18.3348 10.8474L17.964 10.512ZM15.7401 14.3838L15.2703 14.2127L15.2685 14.2177L15.7401 14.3838ZM15.677 14.563L15.5792 15.0533L16.0046 15.1382L16.1486 14.7291L15.677 14.563ZM15.4218 14.5121L15.5196 14.0217L15.5116 14.0202L15.4218 14.5121ZM6.12 15.432L6.32345 15.8887L6.32345 15.8887L6.12 15.432ZM2.052 18.612L1.6448 18.3218L1.6448 18.3218L2.052 18.612ZM2.028 27.084L2.42324 26.7778L2.42324 26.7778L2.028 27.084ZM6.036 30L6.23117 29.5397L6.23117 29.5397L6.036 30ZM8.68331 30.79L8.58909 31.281L8.59442 31.282L8.68331 30.79ZM8.927 30.834L8.98681 31.3304L9.01589 30.342L8.927 30.834ZM5.76 31.572L5.57254 31.1085L5.57254 31.1085L5.76 31.572ZM3.48 37.908L3.11379 38.2484L3.11379 38.2484L3.48 37.908ZM5.208 38.9902L5.41323 38.5343L5.40175 38.5291L5.39002 38.5246L5.208 38.9902ZM5.223 38.997L5.28601 39.493L7.04628 39.2694L5.42823 38.5411L5.223 38.997ZM5.12126 39.0099L5.05824 38.5139L5.05133 38.5148L5.12126 39.0099ZM1.452 40.14L1.17866 39.7213L1.17866 39.7213L1.452 40.14ZM1.212 45.672L1.5487 45.3024L1.5487 45.3024L1.212 45.672ZM5.136 47.388L5.02594 47.8757L5.02594 47.8757L5.136 47.388ZM10.284 27.132L10.7583 26.9739L10.7583 26.9739L10.284 27.132ZM9.36 22.944L8.86454 23.0113L8.86512 23.0154L9.36 22.944ZM9.624 15.948L9.16709 15.7449L9.16709 15.7449L9.624 15.948ZM10.752 14.88L10.8203 15.3753L10.8244 15.3747L10.752 14.88ZM12.744 16.644L12.3019 16.8776L12.3019 16.8776L12.744 16.644ZM14.28 22.272L14.7752 22.2026L14.775 22.2017L14.28 22.272ZM14.364 28.14L14.8532 28.2434L14.8532 28.2434L14.364 28.14ZM12.912 30.384L12.8413 29.889L12.8413 29.889L12.912 30.384ZM7.668 45.504L8.03658 45.1661L8.03658 45.1661L7.668 45.504ZM17.148 46.008L17.5416 46.3163L17.5416 46.3163L17.148 46.008ZM17.112 42.336L17.5012 42.0221L17.5012 42.0221L17.112 42.336ZM14.976 41.076L14.8168 41.55L14.8168 41.55L14.976 41.076ZM10.656 40.176L10.5859 40.6711L10.5877 40.6713L10.656 40.176ZM6.30021 39.341L6.16615 39.8227L6.16984 39.8237L6.30021 39.341ZM6.153 39.3L6.28706 38.8183L5.83824 38.6934L5.68197 39.1323L6.153 39.3ZM6.1248 39.3792L5.65367 39.2115L5.65046 39.2211L6.1248 39.3792ZM6.048 39.648L5.56293 39.5267L5.56293 39.5267L6.048 39.648ZM46.548 35.988L46.3038 35.5517L46.3038 35.5517L46.548 35.988ZM48.42 34.344L47.9947 34.081L47.9947 34.081L48.42 34.344ZM48.756 32.724L48.4024 32.3704L48.4024 32.3705L48.756 32.724ZM48.696 32.88L48.2057 32.782L48.2023 32.7989L48.2001 32.816L48.696 32.88ZM48.252 33.9L47.9413 33.5082L47.9413 33.5083L48.252 33.9ZM46.932 33.888L46.5557 34.2173L46.5557 34.2173L46.932 33.888ZM31.788 15.168L31.9729 15.6326L31.9729 15.6326L31.788 15.168ZM28.344 17.436L27.9629 17.1123L27.9629 17.1123L28.344 17.436ZM28.044 22.392L28.3729 22.0154L28.3729 22.0154L28.044 22.392ZM33.408 21.924L33.7598 22.2793L33.7598 22.2793L33.408 21.924ZM35.112 15.192L34.7499 14.8472L34.7499 14.8472L35.112 15.192ZM37.5 15.192L37.8752 14.8615L37.8752 14.8615L37.5 15.192ZM37.944 25.44L37.7859 25.9143L38.444 26.1337V25.44H37.944ZM37.8917 25.4226L38.0498 24.9482L38.0421 24.9456L38.0343 24.9433L37.8917 25.4226ZM36.6227 25.2516L36.6366 24.7517L36.6295 24.7516L36.6227 25.2516ZM36.36 25.248L36.3668 24.748H36.36V25.248ZM28.26 26.892L27.9784 26.4788L27.9784 26.4788L28.26 26.892ZM36.252 35.796L36.4744 36.2438L36.4744 36.2438L36.252 35.796ZM38.2004 34.3452L38.5701 34.6821L38.5781 34.6728L38.2004 34.3452ZM38.381 34.137L38.8805 34.115L38.8253 32.8617L38.0033 33.8094L38.381 34.137ZM38.3833 34.1899L37.8838 34.2119L37.8842 34.2212L37.885 34.2306L38.3833 34.1899ZM39.2633 35.7799L38.9381 36.1597L38.9437 36.1644L38.9494 36.169L39.2633 35.7799ZM39.432 35.916L39.1179 36.3053L39.1291 36.3138L39.432 35.916ZM36.696 34.32V34.82H36.7088L36.7215 34.8193L36.696 34.32ZM35.04 33.36L34.6256 33.6397L34.6256 33.6397L35.04 33.36ZM36.8542 34.3119L36.8797 34.8113L36.8923 34.8106L36.9049 34.8093L36.8542 34.3119ZM37.824 33.924L38.1073 34.336L38.1146 34.3309L38.1218 34.3256L37.824 33.924ZM37.944 33.835L38.2419 34.2366L38.444 34.0867V33.835H37.944ZM37.944 25.868H38.444V25.4879L38.0778 25.3862L37.944 25.868ZM37.872 25.848L38.0058 25.3662L37.9969 25.3638L37.9878 25.3616L37.872 25.848ZM76.092 36.192L75.7796 35.8016L75.7796 35.8016L76.092 36.192ZM64.2 35.832L64.2707 36.327L64.2932 36.3238L64.3152 36.3185L64.2 35.832ZM65.112 35.616L65.0072 35.127L64.9968 35.1295L65.112 35.616ZM65.568 35.316L66.0105 35.5489L66.0105 35.5489L65.568 35.316ZM65.592 3.168L65.2384 3.52154L65.2385 3.52156L65.592 3.168ZM64.128 2.712L63.8507 2.29596L63.8506 2.29598L64.128 2.712ZM64.296 2.64L64.4173 3.12522L64.4295 3.12185L64.296 2.64ZM73.392 0.12L73.2707 -0.365227L73.2585 -0.36185L73.392 0.12ZM73.788 0.024L73.8965 0.512096L73.8965 0.512093L73.788 0.024ZM74.292 0.096L73.9157 0.425251L73.9157 0.425252L74.292 0.096ZM74.508 35.316L74.0753 35.5665L74.0753 35.5665L74.508 35.316ZM74.952 35.616L75.0672 35.1295L75.0644 35.1288L74.952 35.616ZM75.864 35.832L75.7488 36.3185L75.7708 36.3238L75.7933 36.327L75.864 35.832ZM76.092 35.916L75.7384 36.2695L75.7384 36.2696L76.092 35.916ZM97.572 32.028L97.994 32.2961L97.994 32.2961L97.572 32.028ZM98.676 26.916L98.9332 27.3448L98.9332 27.3447L98.676 26.916ZM96.948 30.636L96.636 30.2453L96.636 30.2453L96.948 30.636ZM87.312 29.7L86.9363 30.03L86.9363 30.03L87.312 29.7ZM85.4895 25.1323L84.9936 25.1964L84.9942 25.2011L85.4895 25.1323ZM85.461 24.912V24.412H84.8923L84.9651 24.9761L85.461 24.912ZM98.8214 24.8045L99.1034 25.2174L99.126 25.2019L99.1468 25.1841L98.8214 24.8045ZM98.892 24.744L99.2174 25.1236L99.239 25.1051L99.2584 25.0842L98.892 24.744ZM97.8 19.176L98.2386 18.9359L98.2386 18.9359L97.8 19.176ZM78.672 19.596L79.1103 19.8366L79.1103 19.8366L78.672 19.596ZM78.696 31.464L78.264 31.7157L78.264 31.7157L78.696 31.464ZM82.656 35.328L82.8978 34.8903L82.8978 34.8903L82.656 35.328ZM85.3753 24.045L84.8767 24.0816L84.877 24.0855L85.3753 24.045ZM85.399 24.336L84.9006 24.3765L84.938 24.836H85.399V24.336ZM89.58 16.884L89.1185 17.0765L89.1185 17.0765L89.58 16.884ZM86.568 15.468L86.9571 15.782L86.9571 15.782L86.568 15.468ZM85.668 17.832L86.1576 17.9334L86.1576 17.9334L85.668 17.832ZM114 36.192L114.277 36.608L114.277 36.608L114 36.192ZM114.024 35.928L114.378 35.5744L114.378 35.5744L114.024 35.928ZM113.832 35.856L113.732 36.3459L113.741 36.3477L113.75 36.3492L113.832 35.856ZM111.48 35.376L111.359 35.8611L111.369 35.8637L111.38 35.8659L111.48 35.376ZM111.024 35.04L111.446 34.7716L111.446 34.7716L111.024 35.04ZM113.088 19.2L113.522 18.9519L113.522 18.9519L113.088 19.2ZM113.304 20.064L112.805 20.0867L112.805 20.0903L113.304 20.064ZM113.352 20.976L112.853 21.0023L112.853 21.0034L113.352 20.976ZM114.216 23.652L113.831 23.9716L113.831 23.9716L114.216 23.652ZM119.76 23.328L119.403 22.9779L119.403 22.9779L119.76 23.328ZM119.952 15.552L119.561 15.8635L119.561 15.8635L119.952 15.552ZM113.856 15.276L113.573 14.8636L113.573 14.8636L113.856 15.276ZM111.42 18.3L110.968 18.0862L110.968 18.0862L111.42 18.3ZM110.864 19.8554L111.347 19.9825L111.348 19.9809L110.864 19.8554ZM110.856 19.885H110.356L111.34 20.012L110.856 19.885ZM110.824 14.6027L111.292 14.4271L111.284 14.4056L111.274 14.3849L110.824 14.6027ZM110.784 14.52L111.234 14.3022L111.224 14.282L111.213 14.2628L110.784 14.52ZM110.244 14.424L110.155 13.9321L110.155 13.9321L110.244 14.424ZM109.896 14.496L109.788 14.0079L109.786 14.0083L109.896 14.496ZM100.776 16.56L100.858 17.0532L100.872 17.0508L100.886 17.0477L100.776 16.56ZM100.56 16.656L100.206 16.3024L100.206 16.3025L100.56 16.656ZM100.56 16.932L100.24 17.3161L100.24 17.3161L100.56 16.932ZM102.084 17.124L101.662 17.3924L101.662 17.3924L102.084 17.124ZM102.048 35.34L102.479 35.5935L102.479 35.5935L102.048 35.34ZM101.592 35.616L101.487 35.1271L101.484 35.1279L101.592 35.616ZM100.728 35.808L100.81 36.3012L100.823 36.299L100.836 36.2961L100.728 35.808ZM100.464 36.18L100.144 36.5641L100.144 36.5641L100.464 36.18ZM131.484 11.4L131.836 11.7551L131.836 11.7551L131.484 11.4ZM124.32 11.4L124.677 11.0495L124.677 11.0495L124.32 11.4ZM124.32 4.584L124.677 4.93447L124.677 4.93446L124.32 4.584ZM131.484 4.584L131.836 4.22893L131.836 4.22893L131.484 4.584ZM134.028 36.192L134.34 36.5824L134.34 36.5824L134.028 36.192ZM133.8 35.832L133.685 36.3185L133.707 36.3238L133.729 36.327L133.8 35.832ZM132.888 35.616L133.003 35.1294L133 35.1288L132.888 35.616ZM132.444 35.316L132.011 35.5665L132.011 35.5665L132.444 35.316ZM131.328 14.28L131.207 13.7948L131.195 13.7981L131.328 14.28ZM122.232 16.8L122.353 17.2852L122.365 17.2818L122.232 16.8ZM122.064 16.872L122.341 17.288L122.341 17.288L122.064 16.872ZM122.052 17.172L121.698 17.5256L121.698 17.5256L122.052 17.172ZM123.528 17.328L123.882 16.9744L123.882 16.9744L123.528 17.328ZM123.504 35.316L123.946 35.5489L123.946 35.5489L123.504 35.316ZM123.048 35.616L122.943 35.127L122.933 35.1295L123.048 35.616ZM122.136 35.832L122.207 36.327L122.229 36.3238L122.251 36.3185L122.136 35.832ZM121.92 36.192L121.643 36.608L121.643 36.608L121.92 36.192ZM155.7 35.988L155.456 35.5517L155.456 35.5517L155.7 35.988ZM148.584 35.916L148.27 36.3053L148.281 36.3138L148.584 35.916ZM148.415 35.7799L148.09 36.1597L148.096 36.1644L148.101 36.1691L148.415 35.7799ZM147.535 34.1899L147.036 34.212L147.036 34.2213L147.037 34.2306L147.535 34.1899ZM147.533 34.137L148.033 34.115L147.977 32.8618L147.155 33.8094L147.533 34.137ZM147.352 34.3452L147.722 34.6821L147.73 34.6728L147.352 34.3452ZM145.404 35.796L145.626 36.2438L145.626 36.2438L145.404 35.796ZM136.812 35.232L136.495 35.6184L136.495 35.6184L136.812 35.232ZM137.412 26.892L137.13 26.4788L137.13 26.4788L137.412 26.892ZM145.512 25.248L145.519 24.748H145.512V25.248ZM145.775 25.2516L145.789 24.7517L145.781 24.7516L145.775 25.2516ZM147.044 25.4226L147.202 24.9482L147.194 24.9456L147.186 24.9433L147.044 25.4226ZM147.096 25.44L146.938 25.9143L147.596 26.1337V25.44H147.096ZM146.652 15.192L147.027 14.8615L147.027 14.8615L146.652 15.192ZM144.264 15.192L144.626 15.5368L144.626 15.5368L144.264 15.192ZM142.56 21.924L142.208 21.5687L142.208 21.5687L142.56 21.924ZM137.196 22.392L136.867 22.7686L136.867 22.7686L137.196 22.392ZM137.496 17.436L137.115 17.1123L137.115 17.1123L137.496 17.436ZM153.54 16.032L153.846 15.6368L153.846 15.6368L153.54 16.032ZM156.084 33.888L155.708 34.2173L155.708 34.2173L156.084 33.888ZM157.404 33.9L157.093 33.5082L157.093 33.5083L157.404 33.9ZM157.848 32.88L157.358 32.7819L157.354 32.7989L157.352 32.816L157.848 32.88ZM157.908 32.724L157.554 32.3704L157.554 32.3704L157.908 32.724ZM158.1 32.724L158.454 32.3706L158.454 32.3704L158.1 32.724ZM157.572 34.344L157.997 34.607L157.997 34.607L157.572 34.344ZM144.192 33.36L143.778 33.6397L143.778 33.6397L144.192 33.36ZM145.848 34.32V34.82H145.861L145.874 34.8193L145.848 34.32ZM147.024 25.848L147.158 25.3662L147.149 25.3638L147.14 25.3616L147.024 25.848ZM147.096 25.868H147.596V25.4879L147.23 25.3862L147.096 25.868ZM147.096 33.835L147.394 34.2366L147.596 34.0867V33.835H147.096ZM146.976 33.924L147.259 34.336L147.267 34.3309L147.274 34.3256L146.976 33.924ZM146.006 34.3119L146.032 34.8113L146.044 34.8106L146.057 34.8093L146.006 34.3119ZM167.112 36.036L166.853 35.6085L166.853 35.6085L167.112 36.036ZM162.084 36.036L162.345 35.6097L162.345 35.6097L162.084 36.036ZM160.32 34.2L159.884 34.4451L159.884 34.4451L160.32 34.2ZM160.32 29.208L159.886 28.9589L159.886 28.9589L160.32 29.208ZM162.084 27.408L162.342 27.8363L162.342 27.8363L162.084 27.408ZM167.112 27.408L166.856 27.8376L166.856 27.8376L167.112 27.408ZM168.9 29.208L168.468 29.4605L168.468 29.4605L168.9 29.208ZM168.9 34.2L169.334 34.4486L169.334 34.4486L168.9 34.2ZM62.364 36.192L62.0516 35.8016C62.0959 35.7661 62.1371 35.751 62.1602 35.7449C62.1822 35.739 62.1923 35.74 62.184 35.74V36.24V36.74C62.3174 36.74 62.51 36.7155 62.6764 36.5824L62.364 36.192ZM62.424 36.048H61.924C61.924 36.0288 61.9269 35.989 61.9475 35.9397C61.9692 35.8874 62.005 35.8389 62.0516 35.8016L62.364 36.192L62.6764 36.5824C62.864 36.4323 62.924 36.2223 62.924 36.048H62.424ZM62.364 35.916L62.0104 36.2696C61.9951 36.2542 61.9725 36.2269 61.9538 36.1859C61.9345 36.1434 61.924 36.0959 61.924 36.048H62.424H62.924C62.924 35.8439 62.8333 35.6782 62.7176 35.5624L62.364 35.916ZM62.136 35.832L62.0653 36.327C62.099 36.3318 62.1093 36.3361 62.1041 36.3342C62.1008 36.333 62.0899 36.3287 62.0744 36.3196C62.0588 36.3105 62.0356 36.2947 62.0104 36.2696L62.364 35.916L62.7176 35.5624C62.5553 35.4002 62.3362 35.3555 62.2067 35.337L62.136 35.832ZM61.224 35.616L61.1088 36.1025L62.0208 36.3185L62.136 35.832L62.2512 35.3455L61.3392 35.1295L61.224 35.616ZM60.78 35.316L60.3473 35.5665C60.5193 35.8636 60.8 36.0313 61.1116 36.1032L61.224 35.616L61.3364 35.1288C61.232 35.1047 61.2167 35.0724 61.2127 35.0655L60.78 35.316ZM60.648 34.704H60.148C60.148 35.0103 60.1995 35.3113 60.3473 35.5665L60.78 35.316L61.2127 35.0655C61.1845 35.0167 61.148 34.9097 61.148 34.704H60.648ZM60.648 0.336H60.148V34.704H60.648H61.148V0.336H60.648ZM60.564 0.096L60.1877 0.425252C60.1738 0.409336 60.1622 0.389681 60.1551 0.369175C60.1482 0.349551 60.148 0.336876 60.148 0.336H60.648H61.148C61.148 0.135573 61.0864 -0.0662876 60.9403 -0.233252L60.564 0.096ZM60.312 0V0.5C60.3216 0.5 60.3079 0.501496 60.281 0.491244C60.2511 0.479857 60.2166 0.458283 60.1877 0.425251L60.564 0.096L60.9403 -0.233251C60.7615 -0.437568 60.5197 -0.5 60.312 -0.5V0ZM60.06 0.024L60.1685 0.512094C60.1961 0.505962 60.2422 0.5 60.312 0.5V0V-0.5C60.1898 -0.5 60.0679 -0.489962 59.9515 -0.464094L60.06 0.024ZM59.664 0.12L59.7853 0.605071C59.9778 0.556941 60.1038 0.526471 60.1685 0.512093L60.06 0.024L59.9515 -0.464093C59.8722 -0.446471 59.7342 -0.412941 59.5427 -0.365071L59.664 0.12ZM50.568 2.64L50.7015 3.12185L59.7975 0.60185L59.664 0.12L59.5305 -0.36185L50.4345 2.15815L50.568 2.64ZM50.4 2.712L50.6773 3.12803C50.6714 3.13202 50.673 3.12914 50.6893 3.12507L50.568 2.64L50.4467 2.15493C50.335 2.18286 50.2246 2.22798 50.1226 2.29597L50.4 2.712ZM50.328 2.856H50.828C50.828 2.88679 50.822 2.93803 50.7932 2.9956C50.7634 3.05524 50.7201 3.09949 50.6773 3.12803L50.4 2.712L50.1226 2.29597C49.9185 2.43205 49.828 2.64636 49.828 2.856H50.328ZM50.388 3.012L50.7416 2.65846C50.7702 2.68715 50.7942 2.7232 50.8097 2.76351C50.8247 2.80264 50.828 2.83565 50.828 2.856H50.328H49.828C49.828 3.03362 49.8881 3.21916 50.0344 3.36554L50.388 3.012ZM50.616 3.072V2.572C50.5864 2.572 50.5853 2.56899 50.6022 2.57346C50.6181 2.57763 50.6792 2.59611 50.7415 2.65844L50.388 3.012L50.0344 3.36556C50.2258 3.55691 50.4847 3.572 50.616 3.572V3.072ZM51.552 3.072V2.572H50.616V3.072V3.572H51.552V3.072ZM51.864 3.168L52.2176 2.81445C52.0173 2.61415 51.753 2.572 51.552 2.572V3.072V3.572C51.5892 3.572 51.5991 3.57641 51.591 3.57389C51.5807 3.57072 51.5467 3.55779 51.5104 3.52155L51.864 3.168ZM51.96 3.456H52.46C52.46 3.25092 52.4084 3.00529 52.2176 2.81445L51.864 3.168L51.5104 3.52155C51.4814 3.49247 51.4673 3.46297 51.4617 3.44612C51.4568 3.43169 51.46 3.43218 51.46 3.456H51.96ZM51.96 34.704H52.46V3.456H51.96H51.46V34.704H51.96ZM51.84 35.316L52.2825 35.5489C52.4143 35.2984 52.46 35.0045 52.46 34.704H51.96H51.46C51.46 34.9155 51.4257 35.0296 51.3975 35.0831L51.84 35.316ZM51.384 35.616L51.4888 36.1049C51.8062 36.0369 52.1122 35.8724 52.2825 35.5489L51.84 35.316L51.3975 35.0831C51.3975 35.0832 51.3976 35.0829 51.398 35.0825C51.3983 35.082 51.3986 35.0817 51.3986 35.0816C51.399 35.0812 51.3972 35.0834 51.3912 35.0873C51.3785 35.0957 51.3457 35.1129 51.2792 35.1271L51.384 35.616ZM50.472 35.832L50.5872 36.3185L51.4992 36.1025L51.384 35.616L51.2688 35.1295L50.3568 35.3455L50.472 35.832ZM50.244 35.916L50.5976 36.2695C50.5724 36.2947 50.5492 36.3105 50.5336 36.3196C50.5181 36.3287 50.5072 36.3329 50.5039 36.3342C50.4987 36.3361 50.509 36.3318 50.5427 36.327L50.472 35.832L50.4013 35.337C50.2718 35.3555 50.0527 35.4002 49.8904 35.5625L50.244 35.916ZM50.184 36.048H50.684C50.684 36.0959 50.6735 36.1434 50.6542 36.1859C50.6355 36.2269 50.6129 36.2543 50.5976 36.2696L50.244 35.916L49.8904 35.5624C49.7747 35.6782 49.684 35.8439 49.684 36.048H50.184ZM50.256 36.192L50.5334 35.776C50.5761 35.8045 50.6194 35.8488 50.6492 35.9084C50.678 35.966 50.684 36.0172 50.684 36.048H50.184H49.684C49.684 36.2576 49.7745 36.4719 49.9786 36.608L50.256 36.192ZM50.424 36.24V35.74C50.4339 35.74 50.4505 35.7413 50.4714 35.7472C50.4926 35.7533 50.5139 35.763 50.5334 35.776L50.256 36.192L49.9786 36.608C50.1176 36.7007 50.2725 36.74 50.424 36.74V36.24ZM62.184 36.24V35.74H50.424V36.24V36.74H62.184V36.24ZM21.432 45.84L21.1518 45.4259C19.1397 46.7874 16.2216 47.5 12.336 47.5V48V48.5C16.3224 48.5 19.4683 47.7726 21.7122 46.2541L21.432 45.84ZM24.624 40.224H24.124C24.124 42.3408 23.1609 44.0663 21.1518 45.4259L21.432 45.84L21.7122 46.2541C23.9591 44.7336 25.124 42.7152 25.124 40.224H24.624ZM23.772 37.08L23.3591 37.3619C23.8574 38.0919 24.124 39.0349 24.124 40.224H24.624H25.124C25.124 38.8851 24.8226 37.7321 24.1849 36.7981L23.772 37.08ZM20.796 35.076L20.6283 35.5471C21.9912 36.0321 22.8736 36.6508 23.3591 37.3619L23.772 37.08L24.1849 36.7981C23.5344 35.8452 22.4328 35.1279 20.9637 34.6049L20.796 35.076ZM14.88 33.888L14.8234 34.3848C17.3357 34.671 19.2645 35.0616 20.6283 35.5471L20.796 35.076L20.9637 34.6049C19.4955 34.0824 17.4803 33.681 14.9366 33.3912L14.88 33.888ZM11.448 33.348L11.3338 33.8348C12.1459 34.0254 13.3123 34.208 14.8219 34.3846L14.88 33.888L14.9381 33.3914C13.4397 33.216 12.3181 33.0386 11.5622 32.8612L11.448 33.348ZM9.84 32.736L9.53303 33.1307C9.91377 33.4268 10.5444 33.6495 11.3338 33.8348L11.448 33.348L11.5622 32.8612C10.7836 32.6785 10.3422 32.4932 10.147 32.3413L9.84 32.736ZM9.408 31.92H8.908C8.908 32.4173 9.14261 32.827 9.53303 33.1307L9.84 32.736L10.147 32.3413C9.96139 32.197 9.908 32.0627 9.908 31.92H9.408ZM9.672 31.152L9.30342 30.8141C9.02461 31.1183 8.908 31.5049 8.908 31.92H9.408H9.908C9.908 31.6951 9.96739 31.5697 10.0406 31.4899L9.672 31.152ZM9.84533 30.992L9.54534 30.592C9.45901 30.6567 9.37859 30.7321 9.30342 30.8141L9.672 31.152L10.0406 31.4899C10.0827 31.4439 10.1179 31.4126 10.1453 31.392L9.84533 30.992ZM9.875 30.973L9.60533 30.552L9.57566 30.571L9.84533 30.992L10.115 31.413L10.1447 31.394L9.875 30.973ZM9.95067 30.9813L10.0054 30.4843L9.92975 30.476L9.875 30.973L9.82025 31.47L9.89592 31.4783L9.95067 30.9813ZM12.24 31.104V30.604C11.457 30.604 10.7126 30.564 10.0066 30.4845L9.95067 30.9813L9.89472 31.4782C10.6412 31.5622 11.423 31.604 12.24 31.604V31.104ZM17.904 29.952L17.6945 29.498C16.1055 30.2314 14.2906 30.604 12.24 30.604V31.104V31.604C14.4134 31.604 16.3745 31.2086 18.1135 30.406L17.904 29.952ZM21.84 26.844L21.4373 26.5476C20.5337 27.775 19.2921 28.7607 17.6945 29.498L17.904 29.952L18.1135 30.406C19.8439 29.6073 21.2263 28.521 22.2427 27.1404L21.84 26.844ZM23.28 22.464H22.78C22.78 23.9731 22.3342 25.3293 21.4373 26.5476L21.84 26.844L22.2427 27.1404C23.2658 25.7507 23.78 24.1869 23.78 22.464H23.28ZM22.02 18.48L21.6052 18.7592C22.3937 19.9306 22.78 21.1624 22.78 22.464H23.28H23.78C23.78 20.9496 23.3263 19.5254 22.4348 18.2008L22.02 18.48ZM18.324 15.432L18.1066 15.8823C19.6667 16.6354 20.8237 17.5981 21.6052 18.7592L22.02 18.48L22.4348 18.2008C21.5363 16.8659 20.2293 15.7966 18.5414 14.9817L18.324 15.432ZM16.2043 14.6794L16.0847 15.1648C16.8175 15.3454 17.491 15.5851 18.1066 15.8823L18.324 15.432L18.5414 14.9817C17.8578 14.6517 17.1182 14.3896 16.324 14.1939L16.2043 14.6794ZM16.062 14.647L15.9511 15.1346L16.0935 15.1669L16.2043 14.6794L16.3152 14.1918L16.1729 14.1594L16.062 14.647ZM16.704 13.476L16.3232 13.1519C16.0334 13.4925 15.7943 13.9397 15.5941 14.4706L16.062 14.647L16.5299 14.8234C16.7057 14.357 16.8946 14.0235 17.0848 13.8001L16.704 13.476ZM17.928 12.912V12.412C17.2862 12.412 16.7387 12.6637 16.3232 13.1519L16.704 13.476L17.0848 13.8001C17.3093 13.5363 17.5778 13.412 17.928 13.412V12.912ZM19.092 13.404L19.4456 13.0504C19.0275 12.6324 18.5138 12.412 17.928 12.412V12.912V13.412C18.2382 13.412 18.5005 13.5196 18.7384 13.7576L19.092 13.404ZM20.064 14.544L20.4658 14.2464C20.1334 13.7976 19.7935 13.3984 19.4456 13.0504L19.092 13.404L18.7384 13.7576C19.0465 14.0656 19.3546 14.4264 19.6622 14.8416L20.064 14.544ZM21.144 15.684L21.461 15.2974C21.0941 14.9964 20.7623 14.6466 20.4658 14.2464L20.064 14.544L19.6622 14.8416C20.0057 15.3054 20.3939 15.7156 20.827 16.0706L21.144 15.684ZM22.632 16.176V15.676C22.138 15.676 21.7589 15.5416 21.461 15.2974L21.144 15.684L20.827 16.0706C21.3291 16.4824 21.942 16.676 22.632 16.676V16.176ZM24.924 15.3L24.5556 14.9619C24.1371 15.4179 23.5217 15.676 22.632 15.676V16.176V16.676C23.7264 16.676 24.6389 16.3501 25.2924 15.6381L24.924 15.3ZM25.728 12.864H25.228C25.228 13.8189 24.9833 14.4959 24.5556 14.9619L24.924 15.3L25.2924 15.6381C25.9367 14.9361 26.228 13.9891 26.228 12.864H25.728ZM24.744 9.984L24.3707 10.3167C24.9294 10.9434 25.228 11.7768 25.228 12.864H25.728H26.228C26.228 11.5832 25.8706 10.4966 25.1173 9.65131L24.744 9.984ZM21.768 8.88V9.38C23.0053 9.38 23.8394 9.72053 24.3707 10.3167L24.744 9.984L25.1173 9.65131C24.3366 8.77547 23.1867 8.38 21.768 8.38V8.88ZM17.964 10.512L18.3348 10.8474C19.218 9.87086 20.3481 9.38 21.768 9.38V8.88V8.38C20.0839 8.38 18.678 8.97713 17.5932 10.1766L17.964 10.512ZM15.7401 14.3838L16.2099 14.5549C16.7672 13.0246 17.4788 11.7939 18.3348 10.8474L17.964 10.512L17.5932 10.1766C16.6326 11.2387 15.8615 12.5892 15.2703 14.2127L15.7401 14.3838ZM15.677 14.563L16.1486 14.7291L16.2117 14.5499L15.7401 14.3838L15.2685 14.2177L15.2054 14.3969L15.677 14.563ZM15.4218 14.5121L15.324 15.0025L15.5792 15.0533L15.677 14.563L15.7748 14.0727L15.5196 14.0218L15.4218 14.5121ZM12.384 14.256V14.756C13.4483 14.756 14.4305 14.8394 15.332 15.004L15.4218 14.5121L15.5116 14.0202C14.543 13.8434 13.5 13.756 12.384 13.756V14.256ZM6.12 15.432L6.32345 15.8887C8.00535 15.1395 10.0209 14.756 12.384 14.756V14.256V13.756C9.91514 13.756 7.75465 14.1565 5.91655 14.9753L6.12 15.432ZM2.052 18.612L2.4592 18.9022C3.35095 17.6507 4.63066 16.6428 6.32345 15.8887L6.12 15.432L5.91655 14.9753C4.08934 15.7892 2.65705 16.9013 1.6448 18.3218L2.052 18.612ZM0.624 23.136H1.124C1.124 21.5573 1.5691 20.1513 2.4592 18.9022L2.052 18.612L1.6448 18.3218C0.630904 19.7447 0.124 21.3547 0.124 23.136H0.624ZM2.028 27.084L2.42324 26.7778C1.54985 25.6506 1.124 24.4408 1.124 23.136H0.624H0.124C0.124 24.6792 0.634154 26.1014 1.63276 27.3902L2.028 27.084ZM6.036 30L6.23117 29.5397C4.55571 28.8293 3.29591 27.904 2.42324 26.7778L2.028 27.084L1.63276 27.3902C2.63209 28.68 4.04429 29.6987 5.84083 30.4603L6.036 30ZM8.68331 30.79L8.77752 30.2989C7.85386 30.1217 7.00565 29.868 6.23117 29.5397L6.036 30L5.84083 30.4603C6.68662 30.8189 7.60328 31.0919 8.58909 31.281L8.68331 30.79ZM8.927 30.834L9.01589 30.342L8.7722 30.2979L8.68331 30.79L8.59442 31.282L8.83811 31.326L8.927 30.834ZM5.76 31.572L5.94746 32.0355C6.73029 31.7189 7.7394 31.4807 8.98681 31.3304L8.927 30.834L8.86719 30.3376C7.56578 30.4944 6.46356 30.7481 5.57254 31.1085L5.76 31.572ZM3.408 33.264L3.81806 33.5501C4.22462 32.9674 4.91484 32.4531 5.94746 32.0355L5.76 31.572L5.57254 31.1085C4.42916 31.5709 3.55138 32.1846 2.99794 32.9779L3.408 33.264ZM2.688 35.616H3.188C3.188 34.833 3.39958 34.1499 3.81806 33.5501L3.408 33.264L2.99794 32.9779C2.45642 33.7541 2.188 34.639 2.188 35.616H2.688ZM3.48 37.908L3.84621 37.5676C3.42348 37.1128 3.188 36.4812 3.188 35.616H2.688H2.188C2.188 36.6708 2.48052 37.5672 3.11379 38.2484L3.48 37.908ZM5.208 38.9902L5.39002 38.5246C4.67807 38.2463 4.17491 37.9212 3.84621 37.5676L3.48 37.908L3.11379 38.2484C3.57709 38.7468 4.22594 39.1432 5.02598 39.4559L5.208 38.9902ZM5.223 38.997L5.42823 38.5411L5.41323 38.5343L5.208 38.9902L5.00277 39.4462L5.01777 39.4529L5.223 38.997ZM5.12126 39.0099L5.18427 39.5059L5.28601 39.493L5.223 38.997L5.15999 38.501L5.05825 38.5139L5.12126 39.0099ZM1.452 40.14L1.72534 40.5587C2.43122 40.0978 3.56825 39.7342 5.19119 39.505L5.12126 39.0099L5.05133 38.5148C3.37628 38.7514 2.06713 39.1413 1.17866 39.7213L1.452 40.14ZM0 43.104H0.5C0.5 41.8969 0.923596 41.0821 1.72534 40.5587L1.452 40.14L1.17866 39.7213C0.0444038 40.4619 -0.5 41.6231 -0.5 43.104H0ZM1.212 45.672L1.5487 45.3024C0.830886 44.6485 0.5 43.9216 0.5 43.104H0H-0.5C-0.5 44.2384 -0.0228858 45.2235 0.875299 46.0416L1.212 45.672ZM5.136 47.388L5.24606 46.9003C3.47087 46.4997 2.26243 45.9525 1.5487 45.3024L1.212 45.672L0.875299 46.0416C1.77757 46.8635 3.18513 47.4603 5.02594 47.8757L5.136 47.388ZM12.336 48V47.5C9.36141 47.5 7.00283 47.2967 5.24606 46.9003L5.136 47.388L5.02594 47.8757C6.88517 48.2953 9.32659 48.5 12.336 48.5V48ZM10.284 27.132L9.80966 27.2901C10.1943 28.4442 10.6388 29.3522 11.1613 29.9737L11.544 29.652L11.9267 29.3303C11.5212 28.8478 11.1257 28.0758 10.7583 26.9739L10.284 27.132ZM9.36 22.944L8.86512 23.0154C9.10778 24.6978 9.42127 26.125 9.80966 27.2901L10.284 27.132L10.7583 26.9739C10.3947 25.883 10.0922 24.5182 9.85488 22.8726L9.36 22.944ZM9.108 18.696L8.60856 18.6724C8.55068 19.8962 8.63796 21.3442 8.86456 23.0113L9.36 22.944L9.85544 22.8767C9.63404 21.2478 9.55332 19.8638 9.60744 18.7196L9.108 18.696ZM9.624 15.948L9.16709 15.7449C8.84256 16.4751 8.66579 17.4624 8.60856 18.6724L9.108 18.696L9.60744 18.7196C9.66221 17.5616 9.82944 16.7169 10.0809 16.1511L9.624 15.948ZM10.752 14.88L10.6837 14.3847C9.97161 14.4829 9.48676 15.0257 9.16709 15.7449L9.624 15.948L10.0809 16.1511C10.3372 15.5743 10.6044 15.4051 10.8203 15.3753L10.752 14.88ZM12.744 16.644L13.1861 16.4104C12.8373 15.7501 12.4698 15.2256 12.0735 14.8747C11.6707 14.518 11.1986 14.3093 10.6796 14.3853L10.752 14.88L10.8244 15.3747C10.9614 15.3547 11.1493 15.392 11.4105 15.6233C11.6782 15.8604 11.9787 16.2659 12.3019 16.8776L12.744 16.644ZM14.28 22.272L14.775 22.2017C14.42 19.7005 13.8979 17.7578 13.1861 16.4104L12.744 16.644L12.3019 16.8776C12.9341 18.0742 13.436 19.8835 13.785 22.3423L14.28 22.272ZM14.364 28.14L14.8532 28.2434C15.1671 26.7588 15.13 24.7348 14.7752 22.2026L14.28 22.272L13.7848 22.3414C14.134 24.8332 14.1529 26.7212 13.8748 28.0366L14.364 28.14ZM12.912 30.384L12.9827 30.879C13.5034 30.8046 13.9043 30.4777 14.1988 30.0226C14.488 29.5756 14.6993 28.9714 14.8532 28.2434L14.364 28.14L13.8748 28.0366C13.7327 28.7086 13.554 29.1784 13.3592 29.4794C13.1697 29.7723 12.9926 29.8674 12.8413 29.889L12.912 30.384ZM11.544 29.652L11.1613 29.9737C11.6675 30.5759 12.2795 30.9794 12.9827 30.879L12.912 30.384L12.8413 29.889C12.6485 29.9166 12.3485 29.8321 11.9267 29.3303L11.544 29.652ZM12.576 47.376V46.876C10.5497 46.876 9.06266 46.2855 8.03658 45.1661L7.668 45.504L7.29942 45.8419C8.56134 47.2185 10.3463 47.876 12.576 47.876V47.376ZM15.444 47.052L15.3073 46.571C14.607 46.7701 13.7009 46.876 12.576 46.876V47.376V47.876C13.7551 47.876 14.761 47.7659 15.5807 47.533L15.444 47.052ZM17.148 46.008L16.7544 45.6997C16.4606 46.0748 15.9956 46.3754 15.3073 46.571L15.444 47.052L15.5807 47.533C16.4124 47.2966 17.0834 46.9012 17.5416 46.3163L17.148 46.008ZM17.712 44.112H17.212C17.212 44.8165 17.0439 45.3301 16.7544 45.6997L17.148 46.008L17.5416 46.3163C18.0041 45.7259 18.212 44.9755 18.212 44.112H17.712ZM17.112 42.336L16.7228 42.6499C17.0452 43.0497 17.212 43.5285 17.212 44.112H17.712H18.212C18.212 43.3195 17.9788 42.6143 17.5012 42.0221L17.112 42.336ZM14.976 41.076L14.8168 41.55C15.8062 41.8824 16.4111 42.2634 16.7228 42.6499L17.112 42.336L17.5012 42.0221C17.0129 41.4166 16.1938 40.9576 15.1352 40.602L14.976 41.076ZM10.656 40.176L10.5877 40.6713C12.4317 40.9257 13.8362 41.2206 14.8168 41.55L14.976 41.076L15.1352 40.602C14.0678 40.2434 12.5923 39.9383 10.7243 39.6807L10.656 40.176ZM6.30021 39.341L6.16984 39.8237C7.32862 40.1366 8.80263 40.4184 10.5859 40.6711L10.656 40.176L10.7261 39.6809C8.96475 39.4314 7.5349 39.1565 6.43058 38.8583L6.30021 39.341ZM6.153 39.3L6.01894 39.7817L6.16616 39.8227L6.30021 39.341L6.43427 38.8593L6.28706 38.8183L6.153 39.3ZM6.1248 39.3792L6.59583 39.5469L6.62403 39.4677L6.153 39.3L5.68197 39.1323L5.65377 39.2115L6.1248 39.3792ZM6.048 39.648L6.53307 39.7693C6.55644 39.6758 6.57859 39.599 6.59914 39.5373L6.1248 39.3792L5.65046 39.2211C5.61981 39.313 5.59076 39.4154 5.56293 39.5267L6.048 39.648ZM5.952 40.512H6.452C6.452 40.2245 6.48082 39.9783 6.53307 39.7693L6.048 39.648L5.56293 39.5267C5.48718 39.8297 5.452 40.1594 5.452 40.512H5.952ZM7.668 45.504L8.03658 45.1661C6.99539 44.0303 6.452 42.4969 6.452 40.512H5.952H5.452C5.452 42.6871 6.05261 44.4817 7.29942 45.8419L7.668 45.504ZM46.548 35.988L46.3038 35.5517C45.5348 35.982 44.4423 36.22 42.984 36.22V36.72V37.22C44.5337 37.22 45.8172 36.97 46.7922 36.4243L46.548 35.988ZM48.42 34.344L47.9947 34.081C47.6777 34.5937 47.1297 35.0895 46.3038 35.5517L46.548 35.988L46.7922 36.4243C47.7103 35.9105 48.4103 35.3103 48.8453 34.607L48.42 34.344ZM48.984 32.88H48.484C48.484 33.1023 48.3602 33.49 47.9947 34.081L48.42 34.344L48.8452 34.607C49.2318 33.982 49.484 33.3937 49.484 32.88H48.984ZM48.948 32.724L48.5944 33.0776C48.5516 33.0347 48.5263 32.9917 48.5119 32.9613C48.4975 32.931 48.4908 32.9066 48.4878 32.8934C48.4822 32.8692 48.484 32.8611 48.484 32.88H48.984H49.484C49.484 32.8189 49.4798 32.7448 49.4622 32.6686C49.4462 32.5991 49.4076 32.4765 49.3016 32.3704L48.948 32.724ZM48.84 32.688V33.188C48.8109 33.188 48.6973 33.1804 48.5944 33.0776L48.948 32.724L49.3016 32.3704C49.1507 32.2196 48.9651 32.188 48.84 32.188V32.688ZM48.756 32.724L49.1096 33.0776C49.0817 33.1054 49.0427 33.1348 48.992 33.1566C48.9406 33.1786 48.8882 33.188 48.84 33.188V32.688V32.188C48.6667 32.188 48.5139 32.259 48.4024 32.3704L48.756 32.724ZM48.696 32.88L49.1863 32.9781C49.191 32.9543 49.1933 32.951 49.1897 32.9605C49.1876 32.9658 49.1821 32.9794 49.1715 32.9978C49.1612 33.0155 49.1418 33.0453 49.1096 33.0775L48.756 32.724L48.4024 32.3705C48.3192 32.4537 48.2773 32.5469 48.2563 32.6015C48.2327 32.663 48.217 32.7257 48.2057 32.782L48.696 32.88ZM48.252 33.9L48.5627 34.2917C48.9477 33.9864 49.122 33.4858 49.1919 32.944L48.696 32.88L48.2001 32.816C48.142 33.2662 48.0203 33.4456 47.9413 33.5082L48.252 33.9ZM47.544 34.176V34.676C47.9212 34.676 48.2635 34.529 48.5627 34.2917L48.252 33.9L47.9413 33.5083C47.7765 33.639 47.6468 33.676 47.544 33.676V34.176ZM46.932 33.888L46.5557 34.2173C46.8119 34.51 47.1498 34.676 47.544 34.676V34.176V33.676C47.4582 33.676 47.3881 33.65 47.3083 33.5587L46.932 33.888ZM46.68 33.024H46.18C46.18 33.4699 46.2761 33.8977 46.5557 34.2173L46.932 33.888L47.3083 33.5588C47.2519 33.4943 47.18 33.3461 47.18 33.024H46.68ZM46.68 21.168H46.18V33.024H46.68H47.18V21.168H46.68ZM44.388 16.032L44.0817 16.4272C45.4672 17.5007 46.18 19.0549 46.18 21.168H46.68H47.18C47.18 18.8011 46.3648 16.9313 44.6943 15.6368L44.388 16.032ZM37.488 14.256V14.756C40.51 14.756 42.6797 15.3408 44.0817 16.4272L44.388 16.032L44.6943 15.6368C43.0403 14.3552 40.61 13.756 37.488 13.756V14.256ZM31.788 15.168L31.9729 15.6326C33.4242 15.0551 35.2568 14.756 37.488 14.756V14.256V13.756C35.1752 13.756 33.2078 14.0649 31.6031 14.7034L31.788 15.168ZM28.344 17.436L28.7251 17.7597C29.4237 16.9374 30.493 16.2214 31.9729 15.6326L31.788 15.168L31.6031 14.7034C30.027 15.3306 28.8003 16.1266 27.9629 17.1123L28.344 17.436ZM27.192 20.112H27.692C27.692 19.3864 28.007 18.6049 28.7251 17.7597L28.344 17.436L27.9629 17.1123C27.145 18.0751 26.692 19.0776 26.692 20.112H27.192ZM28.044 22.392L28.3729 22.0154C27.9487 21.645 27.692 21.0459 27.692 20.112H27.192H26.692C26.692 21.2261 27.0033 22.147 27.7151 22.7686L28.044 22.392ZM30.216 23.136V22.636C29.4356 22.636 28.8349 22.4188 28.3729 22.0154L28.044 22.392L27.7151 22.7686C28.3891 23.3572 29.2364 23.636 30.216 23.636V23.136ZM33.408 21.924L33.0562 21.5687C32.3474 22.2706 31.4166 22.636 30.216 22.636V23.136V23.636C31.6394 23.636 32.8366 23.1934 33.7598 22.2793L33.408 21.924ZM34.632 19.104H34.132C34.132 20.0324 33.7848 20.8472 33.0562 21.5687L33.408 21.924L33.7598 22.2793C34.6632 21.3848 35.132 20.3196 35.132 19.104H34.632ZM34.632 16.56H34.132V19.104H34.632H35.132V16.56H34.632ZM35.112 15.192L34.7499 14.8472C34.3212 15.2973 34.132 15.8882 34.132 16.56H34.632H35.132C35.132 16.0798 35.2628 15.7587 35.4741 15.5368L35.112 15.192ZM36.408 14.688V14.188C35.7528 14.188 35.1806 14.3949 34.7499 14.8472L35.112 15.192L35.4741 15.5368C35.6834 15.3171 35.9752 15.188 36.408 15.188V14.688ZM37.5 15.192L37.8752 14.8615C37.4882 14.4222 36.9895 14.188 36.408 14.188V14.688V15.188C36.6905 15.188 36.9198 15.2898 37.1248 15.5225L37.5 15.192ZM37.944 16.56H38.444C38.444 15.8981 38.2725 15.3125 37.8752 14.8615L37.5 15.192L37.1248 15.5225C37.3195 15.7435 37.444 16.0699 37.444 16.56H37.944ZM37.944 25.44H38.444V16.56H37.944H37.444V25.44H37.944ZM37.8917 25.4226L37.7336 25.8969L37.7859 25.9143L37.944 25.44L38.1021 24.9657L38.0498 24.9482L37.8917 25.4226ZM36.6227 25.2516L36.6087 25.7514C37.094 25.7649 37.47 25.8188 37.7491 25.9018L37.8917 25.4226L38.0343 24.9433C37.6429 24.8269 37.1729 24.7667 36.6366 24.7518L36.6227 25.2516ZM36.36 25.248L36.3532 25.748L36.6159 25.7515L36.6227 25.2516L36.6295 24.7516L36.3668 24.748L36.36 25.248ZM28.26 26.892L28.5416 27.3052C30.0188 26.2983 32.5885 25.748 36.36 25.748V25.248V24.748C32.5475 24.748 29.7172 25.2937 27.9784 26.4788L28.26 26.892ZM25.848 31.44H26.348C26.348 29.6704 27.0694 28.3086 28.5416 27.3052L28.26 26.892L27.9784 26.4788C26.2346 27.6674 25.348 29.3376 25.348 31.44H25.848ZM27.66 35.232L27.9773 34.8456C26.8826 33.9466 26.348 32.8233 26.348 31.44H25.848H25.348C25.348 33.1287 26.0214 34.5334 27.3427 35.6184L27.66 35.232ZM32.232 36.72V36.22C30.4863 36.22 29.0806 35.7516 27.9773 34.8456L27.66 35.232L27.3427 35.6184C28.6554 36.6964 30.2977 37.22 32.232 37.22V36.72ZM36.252 35.796L36.0295 35.3482C34.8615 35.9285 33.598 36.22 32.232 36.22V36.72V37.22C33.746 37.22 35.1625 36.8955 36.4744 36.2438L36.252 35.796ZM38.2004 34.3452L37.8308 34.0085C37.3396 34.5476 36.7411 34.9947 36.0295 35.3482L36.252 35.796L36.4744 36.2438C37.2891 35.8391 37.9895 35.3191 38.57 34.682L38.2004 34.3452ZM38.381 34.137L38.0033 33.8094L37.8227 34.0176L38.2004 34.3452L38.5781 34.6728L38.7587 34.4646L38.381 34.137ZM38.3833 34.1899L38.8828 34.1679L38.8805 34.115L38.381 34.137L37.8815 34.159L37.8838 34.2119L38.3833 34.1899ZM39.2633 35.7799L39.5886 35.4001C39.1319 35.009 38.918 34.5942 38.8817 34.1493L38.3833 34.1899L37.885 34.2306C37.9465 34.9845 38.3192 35.6297 38.9381 36.1597L39.2633 35.7799ZM39.432 35.916L39.746 35.5269L39.5773 35.3908L39.2633 35.7799L38.9494 36.169L39.118 36.3051L39.432 35.916ZM42.984 36.72V36.22C41.3462 36.22 40.3031 35.9508 39.7349 35.5182L39.432 35.916L39.1291 36.3138C39.9688 36.9532 41.2938 37.22 42.984 37.22V36.72ZM36.696 34.32V33.82C36.217 33.82 35.8096 33.6064 35.4544 33.0803L35.04 33.36L34.6256 33.6397C35.1344 34.3936 35.831 34.82 36.696 34.82V34.32ZM36.8542 34.3119L36.8287 33.8126L36.6705 33.8207L36.696 34.32L36.7215 34.8193L36.8797 34.8113L36.8542 34.3119ZM37.824 33.924L37.5407 33.512C37.2636 33.7025 37.019 33.7926 36.8035 33.8145L36.8542 34.3119L36.9049 34.8093C37.3242 34.7666 37.7261 34.5981 38.1073 34.336L37.824 33.924ZM37.944 33.835L37.6461 33.4334L37.5261 33.5224L37.824 33.924L38.1218 34.3256L38.2419 34.2366L37.944 33.835ZM37.944 25.868H37.444V33.835H37.944H38.444V25.868H37.944ZM37.872 25.848L37.7382 26.3298L37.8102 26.3498L37.944 25.868L38.0778 25.3862L38.0058 25.3662L37.872 25.848ZM36.696 25.728V26.228C37.1158 26.228 37.4674 26.2656 37.7562 26.3344L37.872 25.848L37.9878 25.3616C37.6046 25.2704 37.1721 25.228 36.696 25.228V25.728ZM35.016 26.832L35.4513 27.078C35.7997 26.4616 36.2114 26.228 36.696 26.228V25.728V25.228C35.7726 25.228 35.0643 25.7304 34.5807 26.586L35.016 26.832ZM34.392 30.24H34.892C34.892 28.7302 35.0998 27.6999 35.4513 27.078L35.016 26.832L34.5807 26.586C34.1002 27.4361 33.892 28.6778 33.892 30.24H34.392ZM35.04 33.36L35.4544 33.0803C35.1087 32.568 34.892 31.6541 34.892 30.24H34.392H33.892C33.892 31.7059 34.1073 32.872 34.6256 33.6397L35.04 33.36ZM75.912 36.24V36.74C76.0454 36.74 76.238 36.7155 76.4044 36.5824L76.092 36.192L75.7796 35.8016C75.8239 35.7661 75.8651 35.751 75.8882 35.7449C75.9102 35.739 75.9203 35.74 75.912 35.74V36.24ZM64.152 36.24V36.74H75.912V36.24V35.74H64.152V36.24ZM63.984 36.192L63.7066 36.608C63.8456 36.7007 64.0005 36.74 64.152 36.74V36.24V35.74C64.1619 35.74 64.1785 35.7413 64.1994 35.7472C64.2206 35.7533 64.2419 35.763 64.2614 35.776L63.984 36.192ZM63.912 36.048H63.412C63.412 36.2576 63.5025 36.4719 63.7066 36.608L63.984 36.192L64.2614 35.776C64.3041 35.8045 64.3474 35.8488 64.3772 35.9084C64.406 35.966 64.412 36.0172 64.412 36.048H63.912ZM63.972 35.916L63.6184 35.5624C63.5027 35.6782 63.412 35.8439 63.412 36.048H63.912H64.412C64.412 36.0959 64.4015 36.1434 64.3822 36.1859C64.3635 36.2269 64.3409 36.2543 64.3256 36.2696L63.972 35.916ZM64.2 35.832L64.1293 35.337C63.9998 35.3555 63.7807 35.4002 63.6184 35.5624L63.972 35.916L64.3256 36.2696C64.3004 36.2947 64.2772 36.3105 64.2616 36.3196C64.2461 36.3287 64.2352 36.3329 64.2319 36.3342C64.2267 36.3361 64.237 36.3318 64.2707 36.327L64.2 35.832ZM65.112 35.616L64.9968 35.1295L64.0848 35.3455L64.2 35.832L64.3152 36.3185L65.2272 36.1025L65.112 35.616ZM65.568 35.316L65.1255 35.0831C65.1255 35.0832 65.1257 35.0829 65.126 35.0825C65.1263 35.082 65.1266 35.0817 65.1267 35.0816C65.127 35.0812 65.1252 35.0833 65.1192 35.0873C65.1065 35.0957 65.0737 35.1129 65.0072 35.1271L65.112 35.616L65.2168 36.1049C65.5342 36.0369 65.8402 35.8724 66.0105 35.5489L65.568 35.316ZM65.688 34.704H65.188C65.188 34.9155 65.1537 35.0296 65.1255 35.0831L65.568 35.316L66.0105 35.5489C66.1423 35.2984 66.188 35.0045 66.188 34.704H65.688ZM65.688 3.456H65.188V34.704H65.688H66.188V3.456H65.688ZM65.592 3.168L65.2385 3.52156C65.2094 3.49248 65.1953 3.46297 65.1897 3.44611C65.1848 3.43168 65.188 3.43217 65.188 3.456H65.688H66.188C66.188 3.25094 66.1364 3.00528 65.9455 2.81444L65.592 3.168ZM65.28 3.072V3.572C65.3172 3.572 65.3271 3.57641 65.319 3.57389C65.3087 3.57072 65.2747 3.55779 65.2384 3.52154L65.592 3.168L65.9456 2.81446C65.7453 2.61414 65.481 2.572 65.28 2.572V3.072ZM64.344 3.072V3.572H65.28V3.072V2.572H64.344V3.072ZM64.116 3.012L63.7624 3.36556C63.9538 3.55692 64.2127 3.572 64.344 3.572V3.072V2.572C64.3144 2.572 64.3133 2.56899 64.3302 2.57346C64.3461 2.57763 64.4072 2.59611 64.4695 2.65844L64.116 3.012ZM64.056 2.856H63.556C63.556 3.0336 63.616 3.21915 63.7624 3.36556L64.116 3.012L64.4695 2.65844C64.4982 2.68714 64.5222 2.7232 64.5377 2.76352C64.5527 2.80265 64.556 2.83566 64.556 2.856H64.056ZM64.128 2.712L63.8506 2.29598C63.6466 2.43205 63.556 2.64634 63.556 2.856H64.056H64.556C64.556 2.88681 64.55 2.93804 64.5212 2.99561C64.4914 3.05524 64.4482 3.09949 64.4054 3.12802L64.128 2.712ZM64.296 2.64L64.1747 2.15493C64.063 2.18286 63.9527 2.22798 63.8507 2.29596L64.128 2.712L64.4053 3.12804C64.3994 3.13202 64.401 3.12914 64.4173 3.12507L64.296 2.64ZM73.392 0.12L73.2585 -0.36185L64.1625 2.15815L64.296 2.64L64.4295 3.12185L73.5255 0.60185L73.392 0.12ZM73.788 0.024L73.6795 -0.464096C73.6002 -0.446472 73.4622 -0.412939 73.2707 -0.365071L73.392 0.12L73.5133 0.605071C73.7058 0.556939 73.8318 0.526472 73.8965 0.512096L73.788 0.024ZM74.04 0V-0.5C73.9178 -0.5 73.7959 -0.489963 73.6795 -0.464093L73.788 0.024L73.8965 0.512093C73.9241 0.505963 73.9702 0.5 74.04 0.5V0ZM74.292 0.096L74.6683 -0.233251C74.4895 -0.437566 74.2477 -0.5 74.04 -0.5V0V0.5C74.0496 0.5 74.0359 0.501496 74.009 0.491244C73.9791 0.479856 73.9446 0.458283 73.9157 0.425251L74.292 0.096ZM74.376 0.336H74.876C74.876 0.135573 74.8144 -0.0662876 74.6683 -0.233252L74.292 0.096L73.9157 0.425252C73.9018 0.409336 73.8902 0.389681 73.8831 0.369175C73.8762 0.349551 73.876 0.336876 73.876 0.336H74.376ZM74.376 34.704H74.876V0.336H74.376H73.876V34.704H74.376ZM74.508 35.316L74.9407 35.0655C74.9125 35.0167 74.876 34.9097 74.876 34.704H74.376H73.876C73.876 35.0103 73.9275 35.3113 74.0753 35.5665L74.508 35.316ZM74.952 35.616L75.0644 35.1288C74.96 35.1047 74.9447 35.0724 74.9407 35.0655L74.508 35.316L74.0753 35.5665C74.2473 35.8636 74.5279 36.0313 74.8396 36.1032L74.952 35.616ZM75.864 35.832L75.9792 35.3455L75.0672 35.1295L74.952 35.616L74.8368 36.1025L75.7488 36.3185L75.864 35.832ZM76.092 35.916L76.4456 35.5625C76.2833 35.4002 76.0642 35.3555 75.9347 35.337L75.864 35.832L75.7933 36.327C75.827 36.3318 75.8373 36.3361 75.8321 36.3342C75.8288 36.333 75.8179 36.3287 75.8024 36.3196C75.7868 36.3105 75.7636 36.2947 75.7384 36.2695L76.092 35.916ZM76.152 36.048H76.652C76.652 35.8439 76.5613 35.6782 76.4455 35.5624L76.092 35.916L75.7384 36.2696C75.7231 36.2543 75.7005 36.2269 75.6818 36.1859C75.6625 36.1434 75.652 36.0959 75.652 36.048H76.152ZM76.092 36.192L76.4043 36.5824C76.592 36.4323 76.652 36.2224 76.652 36.048H76.152H75.652C75.652 36.0288 75.6549 35.9889 75.6755 35.9397C75.6973 35.8874 75.733 35.8388 75.7796 35.8016L76.092 36.192ZM93.816 35.46L93.5817 35.0183C92.0779 35.8158 90.3679 36.22 88.44 36.22V36.72V37.22C90.5121 37.22 92.3861 36.7842 94.0502 35.9017L93.816 35.46ZM97.572 32.028L97.15 31.7599C96.2786 33.1313 95.0928 34.217 93.5817 35.0183L93.816 35.46L94.0502 35.9017C95.7072 35.023 97.0254 33.8207 97.994 32.2961L97.572 32.028ZM98.952 27.12H98.452C98.452 28.8553 98.0158 30.3972 97.15 31.7599L97.572 32.028L97.994 32.2961C98.9682 30.7628 99.452 29.0327 99.452 27.12H98.952ZM98.892 26.928L98.5797 27.3184C98.5011 27.2556 98.4704 27.1832 98.4598 27.1491C98.4497 27.117 98.452 27.1027 98.452 27.12H98.952H99.452C99.452 26.9953 99.4339 26.7212 99.2043 26.5376L98.892 26.928ZM98.76 26.88V27.38C98.7272 27.38 98.6923 27.3743 98.6581 27.3619C98.6244 27.3496 98.5982 27.3333 98.5797 27.3184L98.892 26.928L99.2043 26.5376C99.0821 26.4398 98.9295 26.38 98.76 26.38V26.88ZM98.676 26.916L98.9332 27.3447C98.9429 27.339 98.9386 27.3423 98.924 27.3486C98.9163 27.3519 98.9001 27.3584 98.8773 27.3646C98.8565 27.3703 98.8148 27.38 98.76 27.38V26.88V26.38C98.6476 26.38 98.5602 26.4165 98.53 26.4294C98.4874 26.4477 98.4491 26.469 98.4188 26.4873L98.676 26.916ZM98.616 27.072H99.116C99.116 27.0723 99.116 27.0796 99.1141 27.0921C99.1122 27.1046 99.1079 27.1259 99.0977 27.1525C99.0757 27.2097 99.0265 27.2888 98.9332 27.3448L98.676 26.916L98.4188 26.4872C98.1439 26.6521 98.116 26.9442 98.116 27.072H98.616ZM96.948 30.636L97.26 31.0267C98.4969 30.0389 99.116 28.704 99.116 27.072H98.616H98.116C98.116 28.416 97.623 29.4571 96.636 30.2453L96.948 30.636ZM92.616 31.968V32.468C94.4766 32.468 96.0393 32.0015 97.26 31.0267L96.948 30.636L96.636 30.2453C95.6327 31.0465 94.3074 31.468 92.616 31.468V31.968ZM87.312 29.7L86.9363 30.03C88.3692 31.6613 90.2798 32.468 92.616 32.468V31.968V31.468C90.5361 31.468 88.9108 30.7627 87.6877 29.37L87.312 29.7ZM85.4895 25.1323L84.9942 25.2011C85.2769 27.235 85.9102 28.8616 86.9363 30.03L87.312 29.7L87.6877 29.37C86.8325 28.3964 86.2508 26.9779 85.9847 25.0635L85.4895 25.1323ZM85.461 24.912L84.9651 24.9761L84.9936 25.1964L85.4895 25.1323L85.9853 25.0683L85.9569 24.8479L85.461 24.912ZM98.376 24.912V24.412H85.461V24.912V25.412H98.376V24.912ZM98.8214 24.8045L98.5394 24.3916C98.5459 24.3872 98.541 24.3926 98.514 24.3991C98.4866 24.4057 98.4421 24.412 98.376 24.412V24.912V25.412C98.6204 25.412 98.8829 25.368 99.1034 25.2174L98.8214 24.8045ZM98.892 24.744L98.5666 24.3644L98.496 24.4248L98.8214 24.8045L99.1468 25.1841L99.2174 25.1236L98.892 24.744ZM99.048 24.336H98.548C98.548 24.3763 98.5394 24.3889 98.5256 24.4038L98.892 24.744L99.2584 25.0842C99.4526 24.8751 99.548 24.6157 99.548 24.336H99.048ZM97.8 19.176L97.3614 19.4161C98.1489 20.8548 98.548 22.4907 98.548 24.336H99.048H99.548C99.548 22.3413 99.1151 20.5372 98.2386 18.9359L97.8 19.176ZM94.26 15.576L94.0105 16.0093C95.4604 16.8443 96.5743 17.9781 97.3614 19.4161L97.8 19.176L98.2386 18.9359C97.3617 17.3339 96.1156 16.0677 94.5095 15.1427L94.26 15.576ZM88.824 14.256V14.756C90.849 14.756 92.5715 15.1806 94.0105 16.0093L94.26 15.576L94.5095 15.1427C92.8924 14.2114 90.991 13.756 88.824 13.756V14.256ZM82.692 15.636L82.9261 16.0778C84.5771 15.2029 86.5376 14.756 88.824 14.756V14.256V13.756C86.4064 13.756 84.2789 14.2291 82.4579 15.1942L82.692 15.636ZM78.672 19.596L79.1103 19.8366C80.0073 18.2023 81.2762 16.9522 82.9261 16.0778L82.692 15.636L82.4579 15.1942C80.6357 16.1598 79.2247 17.5497 78.2337 19.3554L78.672 19.596ZM77.256 25.776H77.756C77.756 23.4415 78.2149 21.4681 79.1103 19.8366L78.672 19.596L78.2337 19.3554C77.2411 21.1639 76.756 23.3105 76.756 25.776H77.256ZM78.696 31.464L79.128 31.2123C78.2179 29.6499 77.756 27.8428 77.756 25.776H77.256H76.756C76.756 27.9972 77.2541 29.9821 78.264 31.7157L78.696 31.464ZM82.656 35.328L82.8978 34.8903C81.2963 34.0057 80.0423 32.7818 79.128 31.2123L78.696 31.464L78.264 31.7157C79.2697 33.4422 80.6557 34.7943 82.4142 35.7657L82.656 35.328ZM88.44 36.72V36.22C86.3371 36.22 84.4943 35.7722 82.8978 34.8903L82.656 35.328L82.4142 35.7657C84.1777 36.7398 86.1909 37.22 88.44 37.22V36.72ZM85.3753 24.045L85.874 24.0084C85.8381 23.5196 85.82 23.0049 85.82 22.464H85.32H84.82C84.82 23.0271 84.8388 23.5664 84.8767 24.0816L85.3753 24.045ZM85.399 24.336L85.8974 24.2955L85.8737 24.0045L85.3753 24.045L84.877 24.0855L84.9006 24.3765L85.399 24.336ZM90.024 24.336V23.836H85.399V24.336V24.836H90.024V24.336ZM90.456 23.808H89.956C89.956 23.8635 89.9501 23.8945 89.9466 23.9074C89.9434 23.9193 89.9445 23.9076 89.961 23.8874C89.9692 23.8774 89.9795 23.8674 89.9916 23.8585C90.0036 23.8497 90.0151 23.8437 90.0243 23.84C90.0425 23.8326 90.046 23.836 90.024 23.836V24.336V24.836C90.2745 24.836 90.5436 24.7546 90.735 24.5206C90.9107 24.3059 90.956 24.0394 90.956 23.808H90.456ZM89.58 16.884L89.1185 17.0765C89.6617 18.3786 89.956 20.6006 89.956 23.808H90.456H90.956C90.956 20.5834 90.6663 18.1894 90.0415 16.6915L89.58 16.884ZM87.768 14.784V15.284C87.876 15.284 88.0569 15.3418 88.3104 15.6356C88.5629 15.9282 88.8356 16.3983 89.1185 17.0765L89.58 16.884L90.0415 16.6915C89.7404 15.9697 89.4191 15.3898 89.0676 14.9824C88.7171 14.5762 88.284 14.284 87.768 14.284V14.784ZM86.568 15.468L86.9571 15.782C87.2662 15.399 87.5364 15.284 87.768 15.284V14.784V14.284C87.1356 14.284 86.6058 14.625 86.1789 15.154L86.568 15.468ZM85.668 17.832L86.1576 17.9334C86.386 16.8306 86.6671 16.1413 86.9571 15.782L86.568 15.468L86.1789 15.154C85.7329 15.7067 85.414 16.5934 85.1784 17.7306L85.668 17.832ZM85.32 22.464H85.82C85.82 20.5095 85.9357 19.0046 86.1576 17.9334L85.668 17.832L85.1784 17.7306C84.9363 18.8994 84.82 20.4825 84.82 22.464H85.32ZM114 36.192L113.723 35.776C113.762 35.7497 113.793 35.7417 113.802 35.7399C113.81 35.738 113.806 35.74 113.784 35.74V36.24V36.74C113.92 36.74 114.109 36.7202 114.277 36.608L114 36.192ZM114.072 36.048H113.572C113.572 36.0172 113.578 35.966 113.607 35.9084C113.637 35.8488 113.68 35.8045 113.723 35.776L114 36.192L114.277 36.608C114.481 36.4719 114.572 36.2577 114.572 36.048H114.072ZM114.024 35.928L113.67 36.2816C113.641 36.2521 113.614 36.2137 113.596 36.1677C113.578 36.1222 113.572 36.0804 113.572 36.048H114.072H114.572C114.572 35.8763 114.509 35.7064 114.378 35.5744L114.024 35.928ZM113.832 35.856L113.75 36.3492C113.778 36.3539 113.784 36.3571 113.776 36.3542C113.772 36.3524 113.759 36.3474 113.742 36.3374C113.725 36.3275 113.699 36.3099 113.67 36.2816L114.024 35.928L114.378 35.5744C114.225 35.4217 114.018 35.3801 113.914 35.3628L113.832 35.856ZM111.48 35.376L111.38 35.8659L113.732 36.3459L113.832 35.856L113.932 35.3661L111.58 34.8861L111.48 35.376ZM111.024 35.04L110.602 35.3084C110.779 35.586 111.035 35.7802 111.359 35.8611L111.48 35.376L111.601 34.8909C111.541 34.8758 111.493 34.846 111.446 34.7716L111.024 35.04ZM110.856 34.464H110.356C110.356 34.7674 110.439 35.0525 110.602 35.3084L111.024 35.04L111.446 34.7716C111.385 34.6755 111.356 34.5766 111.356 34.464H110.856ZM110.856 23.52H110.356V34.464H110.856H111.356V23.52H110.856ZM111.048 20.856L110.556 20.7645C110.421 21.4945 110.356 22.4162 110.356 23.52H110.856H111.356C111.356 22.4478 111.419 21.5935 111.54 20.9475L111.048 20.856ZM111.588 19.344L111.183 19.0505C110.886 19.4604 110.689 20.0515 110.556 20.7645L111.048 20.856L111.54 20.9475C111.663 20.2845 111.826 19.8676 111.993 19.6375L111.588 19.344ZM112.392 18.864V18.364C111.881 18.364 111.478 18.6437 111.183 19.0505L111.588 19.344L111.993 19.6375C112.162 19.4043 112.295 19.364 112.392 19.364V18.864ZM113.088 19.2L113.522 18.9519C113.278 18.5246 112.845 18.364 112.392 18.364V18.864V19.364C112.611 19.364 112.642 19.4274 112.654 19.4481L113.088 19.2ZM113.304 20.064L113.803 20.0413C113.785 19.6376 113.701 19.2653 113.522 18.9519L113.088 19.2L112.654 19.4481C112.731 19.5827 112.791 19.7864 112.805 20.0867L113.304 20.064ZM113.352 20.976L113.851 20.9497L113.803 20.0377L113.304 20.064L112.805 20.0903L112.853 21.0023L113.352 20.976ZM114.216 23.652L114.601 23.3324C114.182 22.8292 113.912 22.0568 113.851 20.9486L113.352 20.976L112.853 21.0034C112.92 22.2312 113.226 23.2428 113.831 23.9716L114.216 23.652ZM116.688 24.576V24.076C115.636 24.076 114.983 23.7923 114.601 23.3324L114.216 23.652L113.831 23.9716C114.473 24.7437 115.468 25.076 116.688 25.076V24.576ZM119.76 23.328L119.403 22.9779C118.687 23.7081 117.794 24.076 116.688 24.076V24.576V25.076C118.046 25.076 119.201 24.6119 120.117 23.6781L119.76 23.328ZM120.984 19.488H120.484C120.484 21.1476 120.091 22.2761 119.403 22.9779L119.76 23.328L120.117 23.6781C121.061 22.7159 121.484 21.2844 121.484 19.488H120.984ZM119.952 15.552L119.561 15.8635C120.147 16.5999 120.484 17.7784 120.484 19.488H120.984H121.484C121.484 17.6776 121.133 16.2321 120.343 15.2405L119.952 15.552ZM116.952 14.256V14.756C118.144 14.756 118.986 15.1415 119.561 15.8635L119.952 15.552L120.343 15.2405C119.542 14.2345 118.384 13.756 116.952 13.756V14.256ZM113.856 15.276L114.139 15.6884C115.058 15.0582 115.993 14.756 116.952 14.756V14.256V13.756C115.767 13.756 114.638 14.1338 113.573 14.8636L113.856 15.276ZM111.42 18.3L111.872 18.5138C112.475 17.2396 113.235 16.3081 114.139 15.6884L113.856 15.276L113.573 14.8636C112.493 15.6039 111.629 16.6884 110.968 18.0862L111.42 18.3ZM110.864 19.8554L111.348 19.9809C111.486 19.4486 111.661 18.96 111.872 18.5138L111.42 18.3L110.968 18.0862C110.728 18.5943 110.532 19.1426 110.38 19.7299L110.864 19.8554ZM110.856 19.885L111.34 20.012L111.347 19.9825L110.864 19.8554L110.38 19.7284L110.372 19.758L110.856 19.885ZM110.856 14.784H110.356V19.885H110.856H111.356V14.784H110.856ZM110.824 14.6027L110.356 14.7782C110.356 14.7776 110.356 14.7773 110.356 14.7776C110.356 14.7779 110.356 14.7799 110.356 14.784H110.856H111.356C111.356 14.6633 111.336 14.5431 111.292 14.4271L110.824 14.6027ZM110.784 14.52L110.334 14.7378L110.374 14.8205L110.824 14.6027L111.274 14.3849L111.234 14.3022L110.784 14.52ZM110.52 14.4V14.9C110.535 14.9 110.514 14.9026 110.475 14.8852C110.43 14.8648 110.385 14.8275 110.355 14.7772L110.784 14.52L111.213 14.2628C111.042 13.9786 110.751 13.9 110.52 13.9V14.4ZM110.244 14.424L110.333 14.9159C110.39 14.9057 110.452 14.9 110.52 14.9V14.4V13.9C110.396 13.9 110.274 13.9103 110.155 13.9321L110.244 14.424ZM109.896 14.496L110.004 14.9841C110.146 14.9527 110.255 14.9303 110.333 14.9159L110.244 14.424L110.155 13.9321C110.057 13.9497 109.934 13.9753 109.788 14.0079L109.896 14.496ZM100.776 16.56L100.886 17.0477L110.006 14.9837L109.896 14.496L109.786 14.0083L100.666 16.0723L100.776 16.56ZM100.56 16.656L100.914 17.0096C100.888 17.0353 100.864 17.0479 100.853 17.0529C100.843 17.0575 100.843 17.0558 100.858 17.0532L100.776 16.56L100.694 16.0668C100.538 16.0928 100.354 16.155 100.206 16.3024L100.56 16.656ZM100.488 16.8H100.988C100.988 16.9314 100.92 17.0031 100.914 17.0095L100.56 16.656L100.206 16.3025C100.104 16.4049 99.988 16.5726 99.988 16.8H100.488ZM100.56 16.932L100.88 16.5479C100.893 16.5586 100.92 16.5845 100.945 16.6296C100.971 16.6776 100.988 16.7366 100.988 16.8H100.488H99.988C99.988 17.0386 100.115 17.2119 100.24 17.3161L100.56 16.932ZM100.728 16.992V16.492C100.749 16.492 100.776 16.4954 100.806 16.5061C100.836 16.5169 100.861 16.5322 100.88 16.5479L100.56 16.932L100.24 17.3161C100.38 17.4329 100.55 17.492 100.728 17.492V16.992ZM101.784 16.992V16.492H100.728V16.992V17.492H101.784V16.992ZM102.084 17.124L102.506 16.8556C102.325 16.5717 102.027 16.492 101.784 16.492V16.992V17.492C101.808 17.492 101.796 17.496 101.766 17.4827C101.75 17.4756 101.73 17.4645 101.711 17.4479C101.691 17.4312 101.675 17.4121 101.662 17.3924L102.084 17.124ZM102.168 17.472H102.668C102.668 17.2678 102.629 17.0489 102.506 16.8556L102.084 17.124L101.662 17.3924C101.651 17.3751 101.668 17.3882 101.668 17.472H102.168ZM102.168 34.848H102.668V17.472H102.168H101.668V34.848H102.168ZM102.048 35.34L102.479 35.5935C102.613 35.3656 102.668 35.1098 102.668 34.848H102.168H101.668C101.668 34.9701 101.643 35.0424 101.617 35.0865L102.048 35.34ZM101.592 35.616L101.697 36.1049C101.995 36.041 102.301 35.8962 102.479 35.5935L102.048 35.34L101.617 35.0865C101.624 35.0744 101.629 35.0747 101.615 35.0833C101.598 35.0935 101.56 35.1116 101.487 35.1271L101.592 35.616ZM100.728 35.808L100.836 36.2961L101.7 36.1041L101.592 35.616L101.484 35.1279L100.62 35.3199L100.728 35.808ZM100.488 35.904L100.788 36.304C100.782 36.3083 100.779 36.3092 100.782 36.3082C100.784 36.3072 100.793 36.304 100.81 36.3012L100.728 35.808L100.646 35.3148C100.488 35.3412 100.329 35.3986 100.188 35.504L100.488 35.904ZM100.392 36.048H100.892C100.892 36.1411 100.86 36.212 100.832 36.2533C100.819 36.273 100.807 36.2862 100.8 36.2936C100.796 36.2973 100.793 36.3 100.791 36.3016C100.79 36.3025 100.789 36.3031 100.789 36.3034C100.788 36.3036 100.788 36.3038 100.788 36.3039C100.788 36.3039 100.788 36.3039 100.788 36.304C100.788 36.304 100.788 36.304 100.788 36.304L100.488 35.904L100.188 35.504C100.081 35.5841 99.892 35.7617 99.892 36.048H100.392ZM100.464 36.18L100.784 35.7959C100.797 35.8066 100.824 35.8325 100.849 35.8776C100.875 35.9256 100.892 35.9846 100.892 36.048H100.392H99.892C99.892 36.2866 100.019 36.4599 100.144 36.5641L100.464 36.18ZM100.68 36.24V35.74C100.665 35.74 100.67 35.7383 100.688 35.7432C100.707 35.7486 100.744 35.7625 100.784 35.7959L100.464 36.18L100.144 36.5641C100.319 36.71 100.527 36.74 100.68 36.74V36.24ZM113.784 36.24V35.74H100.68V36.24V36.74H113.784V36.24ZM127.872 12.792V13.292C129.459 13.292 130.795 12.7871 131.836 11.7551L131.484 11.4L131.132 11.0449C130.301 11.8689 129.229 12.292 127.872 12.292V12.792ZM124.32 11.4L123.963 11.7505C124.981 12.7859 126.299 13.292 127.872 13.292V12.792V12.292C126.533 12.292 125.483 11.8701 124.677 11.0495L124.32 11.4ZM122.952 7.992H122.452C122.452 9.46229 122.956 10.7256 123.963 11.7505L124.32 11.4L124.677 11.0495C123.86 10.2184 123.452 9.20971 123.452 7.992H122.952ZM124.32 4.584L123.963 4.23353C122.956 5.25842 122.452 6.52171 122.452 7.992H122.952H123.452C123.452 6.77429 123.86 5.76558 124.677 4.93447L124.32 4.584ZM127.872 3.192V2.692C126.299 2.692 124.981 3.19808 123.963 4.23353L124.32 4.584L124.677 4.93446C125.483 4.11392 126.533 3.692 127.872 3.692V3.192ZM131.484 4.584L131.836 4.22893C130.795 3.19688 129.459 2.692 127.872 2.692V3.192V3.692C129.229 3.692 130.301 4.11512 131.132 4.93907L131.484 4.584ZM132.888 7.992H133.388C133.388 6.5176 132.869 5.25288 131.836 4.22893L131.484 4.584L131.132 4.93907C131.971 5.77112 132.388 6.77841 132.388 7.992H132.888ZM131.484 11.4L131.836 11.7551C132.869 10.7311 133.388 9.46641 133.388 7.992H132.888H132.388C132.388 9.2056 131.971 10.2129 131.132 11.0449L131.484 11.4ZM134.028 36.192L133.716 35.8016C133.76 35.7661 133.801 35.751 133.824 35.7449C133.846 35.739 133.856 35.74 133.848 35.74V36.24V36.74C133.981 36.74 134.174 36.7155 134.34 36.5824L134.028 36.192ZM134.088 36.048H133.588C133.588 36.0288 133.591 35.9889 133.611 35.9397C133.633 35.8874 133.669 35.8389 133.716 35.8016L134.028 36.192L134.34 36.5824C134.528 36.4323 134.588 36.2224 134.588 36.048H134.088ZM134.028 35.916L133.674 36.2695C133.659 36.2542 133.636 36.2269 133.618 36.1859C133.598 36.1434 133.588 36.0959 133.588 36.048H134.088H134.588C134.588 35.8439 134.497 35.6782 134.382 35.5625L134.028 35.916ZM133.8 35.832L133.729 36.327C133.763 36.3318 133.773 36.3361 133.768 36.3342C133.765 36.333 133.754 36.3287 133.738 36.3196C133.723 36.3105 133.7 36.2947 133.674 36.2695L134.028 35.916L134.382 35.5625C134.219 35.4002 134 35.3555 133.871 35.337L133.8 35.832ZM132.888 35.616L132.773 36.1025L133.685 36.3185L133.8 35.832L133.915 35.3455L133.003 35.1295L132.888 35.616ZM132.444 35.316L132.011 35.5665C132.183 35.8636 132.464 36.0313 132.776 36.1032L132.888 35.616L133 35.1288C132.896 35.1047 132.881 35.0724 132.877 35.0655L132.444 35.316ZM132.312 34.704H131.812C131.812 35.0103 131.864 35.3113 132.011 35.5665L132.444 35.316L132.877 35.0655C132.848 35.0167 132.812 34.9097 132.812 34.704H132.312ZM132.312 14.496H131.812V34.704H132.312H132.812V14.496H132.312ZM132.228 14.256L131.852 14.5853C131.838 14.5693 131.826 14.5497 131.819 14.5292C131.812 14.5096 131.812 14.4969 131.812 14.496H132.312H132.812C132.812 14.2956 132.75 14.0937 132.604 13.9267L132.228 14.256ZM131.976 14.16V14.66C131.986 14.66 131.972 14.6615 131.945 14.6512C131.915 14.6399 131.881 14.6183 131.852 14.5853L132.228 14.256L132.604 13.9267C132.426 13.7224 132.184 13.66 131.976 13.66V14.16ZM131.724 14.184L131.832 14.6721C131.86 14.666 131.906 14.66 131.976 14.66V14.16V13.66C131.854 13.66 131.732 13.67 131.616 13.6959L131.724 14.184ZM131.328 14.28L131.449 14.7651C131.642 14.7169 131.768 14.6865 131.832 14.6721L131.724 14.184L131.616 13.6959C131.536 13.7135 131.398 13.7471 131.207 13.7949L131.328 14.28ZM122.232 16.8L122.365 17.2818L131.461 14.7618L131.328 14.28L131.195 13.7981L122.099 16.3181L122.232 16.8ZM122.064 16.872L122.341 17.288C122.335 17.292 122.337 17.2891 122.353 17.2851L122.232 16.8L122.111 16.3149C121.999 16.3429 121.889 16.388 121.787 16.456L122.064 16.872ZM121.992 17.016H122.492C122.492 17.0468 122.486 17.098 122.457 17.1556C122.427 17.2153 122.384 17.2595 122.341 17.288L122.064 16.872L121.787 16.456C121.583 16.592 121.492 16.8063 121.492 17.016H121.992ZM122.052 17.172L122.406 16.8184C122.434 16.8471 122.458 16.8832 122.474 16.9235C122.489 16.9626 122.492 16.9956 122.492 17.016H121.992H121.492C121.492 17.1937 121.552 17.3792 121.698 17.5256L122.052 17.172ZM122.28 17.232V16.732C122.25 16.732 122.249 16.729 122.266 16.7335C122.282 16.7376 122.343 16.7561 122.406 16.8184L122.052 17.172L121.698 17.5256C121.89 17.7169 122.149 17.732 122.28 17.732V17.232ZM123.216 17.232V16.732H122.28V17.232V17.732H123.216V17.232ZM123.528 17.328L123.882 16.9744C123.681 16.7741 123.417 16.732 123.216 16.732V17.232V17.732C123.253 17.732 123.263 17.7364 123.255 17.7339C123.245 17.7307 123.211 17.7178 123.174 17.6816L123.528 17.328ZM123.624 17.616H124.124C124.124 17.4109 124.072 17.1653 123.882 16.9744L123.528 17.328L123.174 17.6816C123.145 17.6525 123.131 17.623 123.126 17.6061C123.121 17.5917 123.124 17.5922 123.124 17.616H123.624ZM123.624 34.704H124.124V17.616H123.624H123.124V34.704H123.624ZM123.504 35.316L123.946 35.5489C124.078 35.2984 124.124 35.0045 124.124 34.704H123.624H123.124C123.124 34.9155 123.09 35.0296 123.062 35.0831L123.504 35.316ZM123.048 35.616L123.153 36.1049C123.47 36.0369 123.776 35.8724 123.946 35.5489L123.504 35.316L123.062 35.0831C123.062 35.0832 123.062 35.0829 123.062 35.0824C123.062 35.082 123.063 35.0817 123.063 35.0816C123.063 35.0812 123.061 35.0834 123.055 35.0873C123.042 35.0957 123.01 35.1129 122.943 35.1271L123.048 35.616ZM122.136 35.832L122.251 36.3185L123.163 36.1025L123.048 35.616L122.933 35.1295L122.021 35.3455L122.136 35.832ZM121.908 35.916L122.262 36.2696C122.236 36.2947 122.213 36.3105 122.198 36.3196C122.182 36.3287 122.171 36.333 122.168 36.3342C122.163 36.3361 122.173 36.3318 122.207 36.327L122.136 35.832L122.065 35.337C121.936 35.3555 121.717 35.4002 121.554 35.5624L121.908 35.916ZM121.848 36.048H122.348C122.348 36.0959 122.338 36.1434 122.318 36.1859C122.3 36.2269 122.277 36.2542 122.262 36.2696L121.908 35.916L121.554 35.5624C121.439 35.6782 121.348 35.8439 121.348 36.048H121.848ZM121.92 36.192L122.197 35.776C122.24 35.8045 122.283 35.8488 122.313 35.9084C122.342 35.966 122.348 36.0172 122.348 36.048H121.848H121.348C121.348 36.2577 121.439 36.4719 121.643 36.608L121.92 36.192ZM122.088 36.24V35.74C122.098 35.74 122.115 35.7413 122.135 35.7472C122.157 35.7533 122.178 35.763 122.197 35.776L121.92 36.192L121.643 36.608C121.782 36.7007 121.937 36.74 122.088 36.74V36.24ZM133.848 36.24V35.74H122.088V36.24V36.74H133.848V36.24ZM152.136 36.72V37.22C153.686 37.22 154.969 36.97 155.944 36.4243L155.7 35.988L155.456 35.5517C154.687 35.982 153.594 36.22 152.136 36.22V36.72ZM148.584 35.916L148.281 36.3138C149.121 36.9532 150.446 37.22 152.136 37.22V36.72V36.22C150.498 36.22 149.455 35.9508 148.887 35.5182L148.584 35.916ZM148.415 35.7799L148.101 36.1691L148.27 36.3051L148.584 35.916L148.898 35.5269L148.729 35.3908L148.415 35.7799ZM147.535 34.1899L147.037 34.2306C147.098 34.9845 147.471 35.6297 148.09 36.1597L148.415 35.7799L148.741 35.4002C148.284 35.009 148.07 34.5942 148.034 34.1493L147.535 34.1899ZM147.533 34.137L147.033 34.159L147.036 34.212L147.535 34.1899L148.035 34.1679L148.033 34.115L147.533 34.137ZM147.352 34.3452L147.73 34.6728L147.911 34.4646L147.533 34.137L147.155 33.8094L146.975 34.0176L147.352 34.3452ZM145.404 35.796L145.626 36.2438C146.441 35.8391 147.142 35.319 147.722 34.682L147.352 34.3452L146.983 34.0085C146.492 34.5476 145.893 34.9947 145.182 35.3482L145.404 35.796ZM141.384 36.72V37.22C142.898 37.22 144.315 36.8955 145.626 36.2438L145.404 35.796L145.182 35.3482C144.013 35.9285 142.75 36.22 141.384 36.22V36.72ZM136.812 35.232L136.495 35.6184C137.807 36.6964 139.45 37.22 141.384 37.22V36.72V36.22C139.638 36.22 138.233 35.7516 137.129 34.8456L136.812 35.232ZM135 31.44H134.5C134.5 33.1287 135.173 34.5334 136.495 35.6184L136.812 35.232L137.129 34.8456C136.035 33.9466 135.5 32.8233 135.5 31.44H135ZM137.412 26.892L137.13 26.4788C135.387 27.6674 134.5 29.3376 134.5 31.44H135H135.5C135.5 29.6704 136.221 28.3086 137.694 27.3052L137.412 26.892ZM145.512 25.248V24.748C141.699 24.748 138.869 25.2937 137.13 26.4788L137.412 26.892L137.694 27.3052C139.171 26.2983 141.741 25.748 145.512 25.748V25.248ZM145.775 25.2516L145.781 24.7516L145.519 24.748L145.512 25.248L145.505 25.748L145.768 25.7515L145.775 25.2516ZM147.044 25.4226L147.186 24.9433C146.795 24.8269 146.325 24.7667 145.789 24.7518L145.775 25.2516L145.761 25.7514C146.246 25.7649 146.622 25.8188 146.901 25.9018L147.044 25.4226ZM147.096 25.44L147.254 24.9657L147.202 24.9482L147.044 25.4226L146.886 25.8969L146.938 25.9143L147.096 25.44ZM147.096 16.56H146.596V25.44H147.096H147.596V16.56H147.096ZM146.652 15.192L146.277 15.5225C146.472 15.7435 146.596 16.0699 146.596 16.56H147.096H147.596C147.596 15.8981 147.424 15.3125 147.027 14.8615L146.652 15.192ZM145.56 14.688V15.188C145.843 15.188 146.072 15.2898 146.277 15.5225L146.652 15.192L147.027 14.8615C146.64 14.4222 146.141 14.188 145.56 14.188V14.688ZM144.264 15.192L144.626 15.5368C144.835 15.3171 145.127 15.188 145.56 15.188V14.688V14.188C144.905 14.188 144.333 14.3949 143.902 14.8472L144.264 15.192ZM143.784 16.56H144.284C144.284 16.0798 144.415 15.7587 144.626 15.5368L144.264 15.192L143.902 14.8472C143.473 15.2973 143.284 15.8882 143.284 16.56H143.784ZM143.784 19.104H144.284V16.56H143.784H143.284V19.104H143.784ZM142.56 21.924L142.912 22.2793C143.815 21.3848 144.284 20.3196 144.284 19.104H143.784H143.284C143.284 20.0324 142.937 20.8472 142.208 21.5687L142.56 21.924ZM139.368 23.136V23.636C140.791 23.636 141.989 23.1934 142.912 22.2793L142.56 21.924L142.208 21.5687C141.499 22.2706 140.569 22.636 139.368 22.636V23.136ZM137.196 22.392L136.867 22.7686C137.541 23.3572 138.388 23.636 139.368 23.636V23.136V22.636C138.588 22.636 137.987 22.4188 137.525 22.0154L137.196 22.392ZM136.344 20.112H135.844C135.844 21.2262 136.155 22.147 136.867 22.7686L137.196 22.392L137.525 22.0154C137.101 21.645 136.844 21.0458 136.844 20.112H136.344ZM137.496 17.436L137.115 17.1123C136.297 18.0751 135.844 19.0776 135.844 20.112H136.344H136.844C136.844 19.3864 137.159 18.6049 137.877 17.7597L137.496 17.436ZM140.94 15.168L140.755 14.7034C139.179 15.3306 137.952 16.1266 137.115 17.1123L137.496 17.436L137.877 17.7597C138.576 16.9374 139.645 16.2214 141.125 15.6326L140.94 15.168ZM146.64 14.256V13.756C144.327 13.756 142.36 14.0649 140.755 14.7034L140.94 15.168L141.125 15.6326C142.576 15.0551 144.409 14.756 146.64 14.756V14.256ZM153.54 16.032L153.846 15.6368C152.192 14.3552 149.762 13.756 146.64 13.756V14.256V14.756C149.662 14.756 151.832 15.3408 153.234 16.4272L153.54 16.032ZM155.832 21.168H156.332C156.332 18.8011 155.517 16.9313 153.846 15.6368L153.54 16.032L153.234 16.4272C154.619 17.5007 155.332 19.0549 155.332 21.168H155.832ZM155.832 33.024H156.332V21.168H155.832H155.332V33.024H155.832ZM156.084 33.888L156.46 33.5588C156.404 33.4943 156.332 33.3461 156.332 33.024H155.832H155.332C155.332 33.4699 155.428 33.8977 155.708 34.2173L156.084 33.888ZM156.696 34.176V33.676C156.61 33.676 156.54 33.65 156.46 33.5587L156.084 33.888L155.708 34.2173C155.964 34.51 156.302 34.676 156.696 34.676V34.176ZM157.404 33.9L157.093 33.5083C156.928 33.639 156.799 33.676 156.696 33.676V34.176V34.676C157.073 34.676 157.416 34.529 157.715 34.2917L157.404 33.9ZM157.848 32.88L157.352 32.816C157.294 33.2662 157.172 33.4456 157.093 33.5082L157.404 33.9L157.715 34.2918C158.1 33.9864 158.274 33.4858 158.344 32.944L157.848 32.88ZM157.908 32.724L157.554 32.3704C157.471 32.4537 157.429 32.5469 157.408 32.6015C157.385 32.663 157.369 32.7257 157.358 32.7819L157.848 32.88L158.338 32.9781C158.343 32.9543 158.345 32.951 158.342 32.9605C158.34 32.9659 158.334 32.9795 158.323 32.9978C158.313 33.0155 158.294 33.0453 158.262 33.0776L157.908 32.724ZM157.992 32.688V32.188C157.819 32.188 157.666 32.259 157.554 32.3704L157.908 32.724L158.262 33.0776C158.234 33.1054 158.195 33.1348 158.144 33.1566C158.093 33.1786 158.04 33.188 157.992 33.188V32.688ZM158.1 32.724L158.454 32.3704C158.303 32.2196 158.117 32.188 157.992 32.188V32.688V33.188C157.963 33.188 157.849 33.1804 157.746 33.0776L158.1 32.724ZM158.136 32.88H158.636C158.636 32.8189 158.632 32.7448 158.614 32.6686C158.598 32.5991 158.56 32.4765 158.454 32.3706L158.1 32.724L157.746 33.0774C157.703 33.0346 157.678 32.9916 157.664 32.9612C157.65 32.931 157.643 32.9066 157.64 32.8934C157.634 32.8692 157.636 32.8611 157.636 32.88H158.136ZM157.572 34.344L157.997 34.607C158.384 33.982 158.636 33.3937 158.636 32.88H158.136H157.636C157.636 33.1023 157.512 33.49 157.147 34.081L157.572 34.344ZM155.7 35.988L155.944 36.4243C156.862 35.9105 157.562 35.3103 157.997 34.607L157.572 34.344L157.147 34.081C156.83 34.5937 156.282 35.0895 155.456 35.5517L155.7 35.988ZM144.192 33.36L143.778 33.6397C144.286 34.3936 144.983 34.82 145.848 34.82V34.32V33.82C145.369 33.82 144.962 33.6064 144.606 33.0803L144.192 33.36ZM143.544 30.24H143.044C143.044 31.7059 143.259 32.872 143.778 33.6397L144.192 33.36L144.606 33.0803C144.261 32.568 144.044 31.6541 144.044 30.24H143.544ZM144.168 26.832L143.733 26.586C143.252 27.4361 143.044 28.6778 143.044 30.24H143.544H144.044C144.044 28.7302 144.252 27.6999 144.603 27.078L144.168 26.832ZM145.848 25.728V25.228C144.925 25.228 144.216 25.7304 143.733 26.586L144.168 26.832L144.603 27.078C144.952 26.4616 145.363 26.228 145.848 26.228V25.728ZM147.024 25.848L147.14 25.3616C146.757 25.2704 146.324 25.228 145.848 25.228V25.728V26.228C146.268 26.228 146.619 26.2656 146.908 26.3344L147.024 25.848ZM147.096 25.868L147.23 25.3862L147.158 25.3662L147.024 25.848L146.89 26.3298L146.962 26.3498L147.096 25.868ZM147.096 33.835H147.596V25.868H147.096H146.596V33.835H147.096ZM146.976 33.924L147.274 34.3256L147.394 34.2366L147.096 33.835L146.798 33.4334L146.678 33.5224L146.976 33.924ZM146.006 34.3119L146.057 34.8093C146.476 34.7666 146.878 34.5981 147.259 34.336L146.976 33.924L146.693 33.512C146.416 33.7025 146.171 33.7926 145.956 33.8145L146.006 34.3119ZM145.848 34.32L145.874 34.8193L146.032 34.8113L146.006 34.3119L145.981 33.8126L145.823 33.8207L145.848 34.32ZM164.568 36.72V37.22C165.596 37.22 166.535 36.9704 167.371 36.4635L167.112 36.036L166.853 35.6085C166.185 36.0136 165.428 36.22 164.568 36.22V36.72ZM162.084 36.036L161.823 36.4623C162.649 36.9687 163.568 37.22 164.568 37.22V36.72V36.22C163.744 36.22 163.007 36.0153 162.345 35.6097L162.084 36.036ZM160.32 34.2L159.884 34.4451C160.358 35.2866 161.005 35.9613 161.823 36.4623L162.084 36.036L162.345 35.6097C161.675 35.1987 161.146 34.6494 160.756 33.9549L160.32 34.2ZM159.672 31.68H159.172C159.172 32.6747 159.409 33.5996 159.884 34.4451L160.32 34.2L160.756 33.9549C160.367 33.2644 160.172 32.5093 160.172 31.68H159.672ZM160.32 29.208L159.886 28.9589C159.409 29.7893 159.172 30.6996 159.172 31.68H159.672H160.172C160.172 30.8684 160.367 30.1307 160.754 29.4571L160.32 29.208ZM162.084 27.408L161.826 26.9797C161.009 27.4715 160.361 28.1331 159.886 28.9589L160.32 29.208L160.754 29.4571C161.143 28.7789 161.671 28.2405 162.342 27.8363L162.084 27.408ZM164.568 26.736V26.236C163.57 26.236 162.652 26.4824 161.826 26.9797L162.084 27.408L162.342 27.8363C163.004 27.4376 163.742 27.236 164.568 27.236V26.736ZM167.112 27.408L167.368 26.9785C166.532 26.4807 165.595 26.236 164.568 26.236V26.736V27.236C165.429 27.236 166.188 27.4393 166.856 27.8376L167.112 27.408ZM168.9 29.208L169.332 28.9555C168.849 28.1302 168.192 27.4695 167.368 26.9785L167.112 27.408L166.856 27.8376C167.536 28.2425 168.071 28.7818 168.468 29.4605L168.9 29.208ZM169.56 31.68H170.06C170.06 30.6979 169.818 29.7863 169.332 28.9555L168.9 29.208L168.468 29.4605C168.862 30.1337 169.06 30.8701 169.06 31.68H169.56ZM168.9 34.2L169.334 34.4486C169.819 33.6025 170.06 32.6764 170.06 31.68H169.56H169.06C169.06 32.5076 168.861 33.2615 168.466 33.9514L168.9 34.2ZM167.112 36.036L167.371 36.4635C168.196 35.9633 168.852 35.2895 169.334 34.4486L168.9 34.2L168.466 33.9514C168.068 34.6465 167.532 35.1967 166.853 35.6085L167.112 36.036Z" fill="black"/>
</svg>
